<svg width="651" height="131" viewBox="0 0 651 131" xmlns="http://www.w3.org/2000/svg">
<path d="M576.493 45.751C650.206 57.0708 687.523 95.1532 596.761 114.327C506 133.5 425.191 130.415 315.002 129.5C219.533 128.707 54.1888 114.327 54.1888 114.327C25 114.327 0 118.895 0 94C0 72 20.4705 75.1812 42.5 76C36.6611 69.5268 29.1487 60.1017 54.1888 45.751C79.2289 31.4003 113.822 39.7715 127.988 45.751C133.912 38.3453 163.871 11 198.502 11C250.502 11 257.794 24.3426 272.715 38.3453C270.418 25.5635 288.796 0 380.686 0C471.176 0 484.622 36.7063 479.984 55.8988C482.817 47.4612 505.297 34.818 576.493 45.751Z" fill="currentColor" fill-opacity="0.5"/>
</svg>
