<svg width="908" height="594" viewBox="0 0 908 594" fill="none" xmlns="http://www.w3.org/2000/svg">
<path d="M428.493 45.751C502.206 57.0708 539.523 95.1532 448.761 114.327C358 133.5 277.191 130.415 167.002 129.5C71.533 128.707 -93.8112 114.327 -93.8112 114.327C-123 114.327 -148 118.895 -148 94C-148 72 -127.53 75.1812 -105.5 76C-111.339 69.5268 -118.851 60.1017 -93.8112 45.751C-68.7711 31.4003 -34.1782 39.7715 -20.0118 45.751C-14.0883 38.3453 15.8713 11 50.5016 11C102.502 11 109.794 24.3426 124.715 38.3453C122.418 25.5635 140.796 0 232.686 0C323.176 0 336.622 36.7063 331.984 55.8988C334.817 47.4612 357.297 34.818 428.493 45.751Z" fill="#87A2FC" fill-opacity="0.5"/>
<path d="M833.493 260.751C907.206 272.071 944.523 310.153 853.761 329.327C763 348.5 682.191 345.415 572.002 344.5C476.533 343.707 311.189 329.327 311.189 329.327C282 329.327 257 333.895 257 309C257 287 277.47 290.181 299.5 291C293.661 284.527 286.149 275.102 311.189 260.751C336.229 246.4 370.822 254.772 384.988 260.751C390.912 253.345 420.871 226 455.502 226C507.502 226 514.794 239.343 529.715 253.345C527.418 240.564 545.796 215 637.686 215C728.176 215 741.622 251.706 736.984 270.899C739.817 262.461 762.297 249.818 833.493 260.751Z" fill="#87A2FC" fill-opacity="0.5"/>
<path d="M497.493 441.751C571.206 453.071 608.523 491.153 517.761 510.327C427 529.5 346.191 526.415 236.002 525.5C140.533 524.707 -7.99839 510.327 -7.99839 510.327C-36.5 505 -79 514.895 -79 490C-79 468 -58.5295 471.181 -36.5 472C-42.3389 465.527 -49.8513 456.102 -24.8112 441.751C0.228928 427.4 34.8218 435.772 48.9882 441.751C54.9117 434.345 84.8713 407 119.502 407C171.502 407 178.794 420.343 193.715 434.345C191.418 421.564 209.796 396 301.686 396C392.176 396 405.622 432.706 400.984 451.899C403.817 443.461 426.297 430.818 497.493 441.751Z" fill="#121A6A" fill-opacity="0.7"/>
<path d="M555.493 508.751C629.206 520.071 666.523 558.153 575.761 577.327C485 596.5 404.191 593.415 294.002 592.5C198.533 591.707 33.1888 577.327 33.1888 577.327C4 577.327 -21 581.895 -21 557C-21 535 -0.529541 538.181 21.5 539C15.6611 532.527 8.14874 523.102 33.1888 508.751C58.2289 494.4 92.8218 502.772 106.988 508.751C112.912 501.345 142.871 474 177.502 474C229.502 474 236.794 487.343 251.715 501.345C249.418 488.564 267.796 463 359.686 463C450.176 463 463.622 499.706 458.984 518.899C461.817 510.461 484.297 497.818 555.493 508.751Z" fill="#87A2FC" fill-opacity="0.5"/>
</svg>
