<svg width="472" height="533" viewBox="0 0 472 533" fill="none" xmlns="http://www.w3.org/2000/svg">
<rect x="104.46" y="213.804" width="265.016" height="240.789" fill="url(#paint0_linear_816_497)"/>
<g filter="url(#filter0_f_816_497)">
<rect width="261.378" height="143.605" transform="matrix(0.999988 -0.00494397 0.00535803 0.999986 102.617 215.221)" fill="url(#paint1_linear_816_497)" fill-opacity="0.38"/>
</g>
<path d="M103.814 216.225L105.749 454.592H18.377V229.372C18.377 229.372 38.126 218.792 54.8086 216.225C71.4913 213.658 103.814 216.225 103.814 216.225Z" fill="url(#paint2_linear_816_497)"/>
<path d="M365.607 215.188L363.672 453.555H451.044V226.95C451.044 226.95 434.197 217.755 417.514 215.188C400.831 212.621 365.607 215.188 365.607 215.188Z" fill="url(#paint3_linear_816_497)"/>
<path d="M423.444 341.117L405.389 336.966V433.835L423.444 438.332V341.117Z" fill="#87A2FC"/>
<path d="M45.5693 341.117L63.624 336.966V433.835L45.5693 438.332V341.117Z" fill="#87A2FC"/>
<path d="M23.2124 167.445L62.5458 160.872V171.942L12.8955 180.591L23.2124 167.445Z" fill="url(#paint4_linear_816_497)"/>
<path d="M449.432 169.174L410.099 162.601V173.671L459.749 182.32L449.432 169.174Z" fill="url(#paint5_linear_816_497)"/>
<path d="M238.095 91.3335C155.374 91.3335 23.8589 127.207 23.8589 127.207V168.829C23.8589 168.829 155.437 147.293 238.095 147.293C320.753 147.293 447.176 168.829 447.176 168.829L447.498 127.207C447.498 127.207 320.815 91.3335 238.095 91.3335Z" fill="url(#paint6_linear_816_497)"/>
<path d="M125.737 33.2735C76.1193 59.578 32.5617 110.422 34.4962 111.114C36.4306 111.806 61.4707 102.315 78.0206 98.6594C94.6781 94.9801 125.737 87.5275 125.737 87.5275V69.8835L120.901 63.0255L214.284 61.5799L235.999 52.9315L263.041 63.0255H353.732L348.841 71.6133V88.5654C348.841 88.5654 375.348 94.8074 390.486 98.6594C405.624 102.511 439.222 112.744 439.222 112.744C447.702 113.3 397.07 55.8222 353.732 33.2735C309.881 10.4575 276.901 6.33713 235.999 6.9187C207.037 7.3305 154.509 18.0199 125.737 33.2735Z" fill="url(#paint7_linear_816_497)"/>
<rect x="63.1909" y="134.924" width="348.842" height="41.5153" fill="url(#paint8_linear_816_497)"/>
<path d="M63.0972 153.283L411.294 153.283" stroke="#121A6A"/>
<path d="M62.2778 155.644L411.939 155.358" stroke="#121A6A"/>
<path d="M193.816 4.90071C191.703 11.6912 192.204 13.2034 192.204 13.2034C210.904 8.35999 257.2 3.6179 287.828 10.8831C288.747 7.20458 287.477 4.98234 286.346 3.5167C283.328 -0.912362 195.929 -1.88983 193.816 4.90071Z" fill="url(#paint9_linear_816_497)"/>
<path d="M45.5693 232.832L63.624 227.642V325.895L45.5693 330.392V232.832Z" fill="#87A2FC"/>
<path d="M45.5693 232.832L63.624 227.642V325.895L45.5693 330.392V232.832Z" fill="url(#paint10_linear_816_497)" fill-opacity="0.2"/>
<path d="M59.2563 322.403L49.2944 325.232V238.052L59.2563 235.223V322.403Z" fill="#FFD400" stroke="white"/>
<path d="M59.4668 432.419L49.5049 435.248V348.068L59.4668 345.239V432.419Z" fill="#FFD400" stroke="white"/>
<path d="M18.3306 241.48L29.9371 235.599V332.814L18.3307 337.312L18.3306 241.48Z" fill="url(#paint11_linear_816_497)"/>
<path d="M17.9775 351.083L29.4498 346.999V440.605L18.4377 448.068L17.9775 351.083Z" fill="url(#paint12_linear_816_497)"/>
<rect x="206.983" y="356.339" width="59.3224" height="98.2528" fill="url(#paint13_linear_816_497)"/>
<rect x="296.613" y="328.663" width="44.4918" height="98.2528" fill="url(#paint14_linear_816_497)"/>
<path d="M139.279 328.663H183.771V426.916H139.279V328.663Z" fill="url(#paint15_linear_816_497)"/>
<rect x="139.279" y="236.637" width="44.4918" height="69.8841" fill="url(#paint16_linear_816_497)"/>
<rect x="296.613" y="236.637" width="44.4918" height="69.8841" fill="url(#paint17_linear_816_497)"/>
<rect x="217.946" y="236.637" width="44.4918" height="69.8841" fill="url(#paint18_linear_816_497)"/>
<rect x="224.893" y="245.439" width="31.2404" height="50.8941" fill="#F8EC80" stroke="white"/>
<rect x="213.931" y="363.067" width="47.3607" height="12.1465" fill="url(#paint19_linear_816_497)" stroke="white"/>
<rect x="241.659" y="382.44" width="19.6339" height="12.1465" fill="url(#paint20_linear_816_497)" stroke="white"/>
<rect x="214.577" y="382.44" width="19.6339" height="12.1465" fill="url(#paint21_linear_816_497)" stroke="white"/>
<rect x="214.577" y="401.814" width="19.6339" height="51.586" fill="url(#paint22_linear_816_497)" stroke="white"/>
<rect x="241.659" y="401.814" width="19.6339" height="51.586" fill="url(#paint23_linear_816_497)" stroke="white"/>
<rect x="302.915" y="246.132" width="31.2404" height="50.8941" fill="#FFD400" stroke="white"/>
<rect x="302.915" y="349.228" width="31.2404" height="70.9598" fill="#F8EC80" stroke="white"/>
<rect x="145.582" y="349.228" width="31.2404" height="70.9598" fill="#F8EC80" stroke="white"/>
<rect x="145.582" y="246.132" width="31.2404" height="50.8941" fill="#FFD400" stroke="white"/>
<path d="M42.3309 342.593L44.3412 344.515L66.2815 339.337L67.4733 336.659L53.1655 332.368L42.3309 342.593Z" fill="#87A2FC" stroke="white"/>
<path d="M63.1339 337.59L46.3985 341.54L53.8212 334.955L63.1339 337.59Z" fill="#2848BA" stroke="white"/>
<path d="M133.476 325.674L136.876 329.497H185.267L188.929 325.674L160.679 313.44L133.476 325.674Z" fill="#87A2FC" stroke="#F8EC80"/>
<path d="M181.098 325.843H140.784L160.941 317.422L181.098 325.843Z" fill="#2848BA" stroke="#F8EC80"/>
<path d="M290.809 324.982L294.21 328.806H342.601L346.263 324.982L318.013 312.749L290.809 324.982Z" fill="#87A2FC" stroke="#F8EC80"/>
<path d="M338.432 325.151H298.117L318.274 316.73L338.432 325.151Z" fill="#2848BA" stroke="#F8EC80"/>
<path d="M203.76 351.013L207.833 356.483H265.79L270.176 351.013L236.341 333.507L203.76 351.013Z" fill="#87A2FC" stroke="white"/>
<path d="M261.664 351.47H211.646L236.654 338.988L261.664 351.47Z" fill="url(#paint24_radial_816_497)" stroke="white"/>
<path d="M17.2406 349.206L18.5755 350.974L30.9948 347.671L31.4723 345.42L19.7772 340.419L17.2406 349.206Z" fill="#87A2FC" stroke="white"/>
<path d="M28.5549 346.05L19.3072 348.51L21.046 343.154L28.5549 346.05Z" fill="#2848BA" stroke="white"/>
<path d="M423.444 232.832L405.389 227.642V325.895L423.444 330.392V232.832Z" fill="#87A2FC"/>
<path d="M409.758 322.403L419.72 325.232V238.052L409.758 235.223V322.403Z" fill="#FFD400" stroke="white"/>
<path d="M409.954 431.727L419.916 434.556V347.376L409.954 344.547V431.727Z" fill="#FFD400" stroke="white"/>
<path d="M426.682 342.592L424.672 344.514L402.731 339.336L401.539 336.658L415.847 332.367L426.682 342.592Z" fill="#87A2FC" stroke="white"/>
<path d="M405.879 337.589L422.615 341.539L415.192 334.954L405.879 337.589Z" fill="#2848BA" stroke="white"/>
<path d="M125.416 69.5384L121.225 62.2732L214.077 61.2354L194.088 69.5384H125.416Z" fill="#87A2FC"/>
<path d="M349.809 71.2679L353.678 62.9648H261.148L282.104 71.2679H349.809Z" fill="#87A2FC"/>
<path d="M125.416 96.5221V74.7266H180.224L125.416 96.5221Z" fill="#00042D"/>
<path d="M349.488 97.9071V76.8035L294.357 75.7656L349.488 97.9071Z" fill="#00042D"/>
<path d="M23.2124 114.167C3.35227 119.877 14.9373 126.233 23.2124 128.697C23.2124 128.697 149.613 91.4549 234.387 90.9877C321.031 90.5102 450.48 128.697 450.48 128.697C469.116 123.339 455.826 116.778 446.851 114.167C446.851 114.167 268.562 64.0026 234.387 63.6568C200.212 63.3109 43.0725 108.457 23.2124 114.167Z" fill="url(#paint25_linear_816_497)"/>
<path d="M54.4869 217.955C35.465 220.807 18.0552 229.372 18.0552 229.372V213.458V198.581L83.1809 190.278L104.46 215.879C104.46 215.879 73.5087 215.104 54.4869 217.955Z" fill="url(#paint26_linear_816_497)"/>
<path d="M418.481 215.879C435.604 218.446 451.044 226.95 451.044 226.95V215.879V201.003L390.754 194.43L371.088 212.766C371.088 212.766 401.358 213.312 418.481 215.879Z" fill="url(#paint27_linear_816_497)"/>
<path d="M4.19253 187.164C6.44636 183.705 11.6089 179.899 15.1543 179.207C15.1543 179.207 26.4874 176.129 33.8531 174.71C41.2318 173.288 52.8756 171.942 52.8756 171.942L79.954 169.866L90.2739 196.505C90.2739 196.505 69.317 195.121 57.3887 196.505C45.4603 197.889 27.057 199.394 19.9871 205.076C15.1543 208.96 18.3751 218.568 18.3751 218.568C18.3751 218.568 12.3559 212.419 6.4461 204.808C0.536298 197.197 1.00373 192.059 4.19253 187.164Z" fill="url(#paint28_linear_816_497)"/>
<path d="M465.229 187.51C462.976 184.051 457.813 180.245 454.268 179.553C454.268 179.553 442.934 176.475 435.569 175.056C428.19 173.634 416.546 172.288 416.546 172.288L389.468 170.212L379.148 196.851C379.148 196.851 400.105 195.468 412.033 196.851C423.962 198.235 442.365 199.741 449.435 205.422C454.268 209.306 451.047 218.915 451.047 218.915C451.047 218.915 457.066 212.766 462.976 205.154C468.886 197.543 468.418 192.405 465.229 187.51Z" fill="url(#paint29_linear_816_497)"/>
<path d="M104.46 215.879L64.1592 176.439H410.422L371.411 212.765L104.46 215.879Z" fill="url(#paint30_linear_816_497)"/>
<path d="M424.441 181.629H56.9077L52.7129 169.174H428.636L424.441 181.629Z" fill="url(#paint31_linear_816_497)" stroke="#121B6A"/>
<path d="M224.393 271.925H256.633" stroke="#87A2FC" stroke-width="4"/>
<path d="M145.082 271.925H177.322" stroke="#87A2FC" stroke-width="4"/>
<path d="M105.045 457.12H92.4414C92.4414 457.12 92.8317 451.865 93.3259 448.817C93.83 445.708 94.9843 441.552 94.9843 441.552H102.392C102.392 441.552 103.527 445.739 104.05 448.817C104.57 451.874 105.045 457.12 105.045 457.12Z" fill="url(#paint32_linear_816_497)"/>
<path d="M90.1196 185.555H106.925L105.709 205.62H104.492H92.9942H91.778L90.1196 185.555Z" fill="url(#paint33_linear_816_497)"/>
<path d="M104.492 205.62H92.6621C92.6621 205.62 92.6695 213.167 93.1043 217.728C93.5626 222.533 94.9839 229.144 94.9839 229.144H102.391C102.391 229.144 103.635 222.45 104.05 217.728C104.452 213.138 104.492 205.62 104.492 205.62Z" fill="url(#paint34_linear_816_497)"/>
<rect x="94.8735" y="229.144" width="7.51808" height="213.1" fill="url(#paint35_linear_816_497)"/>
<path d="M379.559 458.694H366.955C366.955 458.694 367.345 453.576 367.84 450.608C368.344 447.58 369.498 443.533 369.498 443.533H376.905C376.905 443.533 378.04 447.61 378.564 450.608C379.084 453.585 379.559 458.694 379.559 458.694Z" fill="url(#paint36_linear_816_497)"/>
<path d="M364.633 194.213H381.438L380.222 213.755H379.006H367.508H366.292L364.633 194.213Z" fill="url(#paint37_linear_816_497)"/>
<path d="M379.006 213.754H367.176C367.176 213.754 367.183 221.105 367.618 225.547C368.076 230.227 369.498 236.665 369.498 236.665H376.905C376.905 236.665 378.149 230.146 378.563 225.547C378.966 221.077 379.006 213.754 379.006 213.754Z" fill="url(#paint38_linear_816_497)"/>
<rect x="369.387" y="236.665" width="7.51808" height="207.541" fill="url(#paint39_linear_816_497)"/>
<rect x="156.514" y="365.024" width="8.38251" height="7.61113" fill="white"/>
<rect x="156.514" y="376.044" width="8.38251" height="7.61113" fill="white"/>
<rect x="164.708" y="404.381" width="8.38251" height="7.61113" fill="white"/>
<rect x="157.977" y="248.4" width="8.38251" height="7.61113" fill="#F8EC80"/>
<rect x="147.5" y="352.43" width="8.38251" height="7.61113" fill="white"/>
<rect x="312.732" y="248.4" width="8.38251" height="7.61113" fill="#F8EC80"/>
<rect x="306.284" y="286.455" width="8.38251" height="7.61113" fill="#F8EC80"/>
<rect x="317.245" y="286.455" width="8.38251" height="7.61113" fill="#F8EC80"/>
<rect x="306.284" y="274.692" width="8.38251" height="7.61113" fill="#F8EC80"/>
<rect x="323.693" y="248.4" width="8.38251" height="7.61113" fill="#F8EC80"/>
<rect x="323.693" y="260.162" width="8.38251" height="7.61113" fill="#F8EC80"/>
<rect x="111.445" y="221.764" width="18.8472" height="8.65859" rx="2" fill="#2F346C"/>
<rect x="111.445" y="232.784" width="18.8472" height="8.65859" rx="2" fill="#2B316C"/>
<rect x="134.388" y="222.551" width="18.8472" height="8.65859" rx="2" fill="#2C326C"/>
<rect x="346.625" y="300.479" width="18.8472" height="8.65859" rx="2" fill="#383E78"/>
<rect x="346.625" y="313.072" width="18.8472" height="8.65859" rx="2" fill="#353B74"/>
<rect x="346.625" y="313.072" width="18.8472" height="8.65859" rx="2" fill="#353B74"/>
<rect x="204.042" y="314.647" width="18.8472" height="8.65859" fill="#6F7FC0"/>
<rect x="226.986" y="314.647" width="18.8472" height="8.65859" fill="#7687CA"/>
<rect x="213.875" y="325.667" width="18.8472" height="8.65859" fill="#6B7CBD"/>
<path d="M193.389 69.5381H125.261V81.3452L144.632 80.472L193.389 69.5381Z" fill="#121A6A"/>
<path d="M283.937 71.4189H349.196V83.2261L328.597 82.439L283.937 71.4189Z" fill="#121A6A"/>
<g filter="url(#filter1_f_816_497)">
<rect x="61.4585" y="132.817" width="350.722" height="14.1686" fill="#2848BA"/>
</g>
<g filter="url(#filter2_f_816_497)">
<rect x="61.4585" y="132.817" width="350.722" height="6.29715" fill="#121A6A"/>
</g>
<path d="M236 52.5859L440.382 133.541H31.618L236 52.5859Z" fill="url(#paint40_linear_816_497)"/>
<path d="M235.677 62.9648L74.4751 126.276L404.94 127.314L235.677 62.9648Z" fill="url(#paint41_radial_816_497)"/>
<ellipse cx="235.999" cy="103.096" rx="22.5683" ry="21.4496" fill="#2848BA"/>
<path d="M236.323 84.2227C247.296 84.2227 256.134 92.5486 256.134 102.751C256.134 112.953 247.295 121.278 236.323 121.278C225.35 121.278 216.512 112.953 216.511 102.751C216.511 92.5486 225.35 84.2227 236.323 84.2227Z" fill="#00042D" stroke="#FFD400"/>
<path d="M63.6066 160.18L32.3677 133.604H63.6066V160.18Z" fill="#121A6A"/>
<path d="M411.71 163.985L438.792 133.54H411.71V163.985Z" fill="#121A6A"/>
<path d="M100.48 455.805H63.4097C63.4097 455.805 64.5576 450.535 66.0111 447.478C67.4938 444.36 70.8887 440.192 70.8887 440.192H92.6755C92.6755 440.192 96.0136 444.392 97.5532 447.478C99.0824 450.544 100.48 455.805 100.48 455.805Z" fill="url(#paint42_linear_816_497)"/>
<path d="M56.5811 183.453H106.008L102.431 203.576H98.854H65.0356H61.4587L56.5811 183.453Z" fill="url(#paint43_linear_816_497)"/>
<path d="M98.8539 203.576H64.0601C64.0601 203.576 64.0817 211.145 65.3608 215.719C66.7085 220.539 70.8888 227.168 70.8888 227.168H92.6756C92.6756 227.168 96.3345 220.455 97.5532 215.719C98.7377 211.117 98.8539 203.576 98.8539 203.576Z" fill="url(#paint44_linear_816_497)"/>
<rect x="70.5635" y="227.168" width="22.112" height="213.718" fill="url(#paint45_linear_816_497)"/>
<path d="M158.66 455.805H121.59C121.59 455.805 122.738 450.535 124.192 447.478C125.674 444.36 129.069 440.192 129.069 440.192H150.856C150.856 440.192 154.194 444.392 155.734 447.478C157.263 450.544 158.66 455.805 158.66 455.805Z" fill="url(#paint46_linear_816_497)"/>
<path d="M114.762 183.453H164.189L160.612 203.576H157.035H123.216H119.639L114.762 183.453Z" fill="url(#paint47_linear_816_497)"/>
<path d="M157.035 203.576H122.241C122.241 203.576 122.262 211.145 123.541 215.719C124.889 220.539 129.069 227.168 129.069 227.168H150.856C150.856 227.168 154.515 220.455 155.734 215.719C156.918 211.117 157.035 203.576 157.035 203.576Z" fill="url(#paint48_linear_816_497)"/>
<rect x="128.744" y="227.168" width="22.112" height="213.718" fill="url(#paint49_linear_816_497)"/>
<path d="M359.424 455.805H322.354C322.354 455.805 323.502 450.535 324.955 447.478C326.438 444.36 329.833 440.192 329.833 440.192H351.62C351.62 440.192 354.958 444.392 356.498 447.478C358.027 450.544 359.424 455.805 359.424 455.805Z" fill="url(#paint50_linear_816_497)"/>
<path d="M315.525 183.453H364.952L361.375 203.576H357.798H323.98H320.403L315.525 183.453Z" fill="url(#paint51_linear_816_497)"/>
<path d="M357.798 203.576H323.004C323.004 203.576 323.026 211.145 324.305 215.719C325.653 220.539 329.833 227.168 329.833 227.168H351.62C351.62 227.168 355.279 220.455 356.498 215.719C357.682 211.117 357.798 203.576 357.798 203.576Z" fill="url(#paint52_linear_816_497)"/>
<rect x="329.508" y="227.168" width="22.112" height="213.718" fill="url(#paint53_linear_816_497)"/>
<path d="M301.243 455.805H264.173C264.173 455.805 265.321 450.535 266.775 447.478C268.258 444.36 271.652 440.192 271.652 440.192H293.439C293.439 440.192 296.777 444.392 298.317 447.478C299.846 450.544 301.243 455.805 301.243 455.805Z" fill="url(#paint54_linear_816_497)"/>
<path d="M257.345 183.453H306.772L303.195 203.576H299.618H265.799H262.222L257.345 183.453Z" fill="url(#paint55_linear_816_497)"/>
<path d="M299.618 203.576H264.824C264.824 203.576 264.845 211.145 266.124 215.719C267.472 220.539 271.652 227.168 271.652 227.168H293.439C293.439 227.168 297.098 220.455 298.317 215.719C299.501 211.117 299.618 203.576 299.618 203.576Z" fill="url(#paint56_linear_816_497)"/>
<rect x="271.327" y="227.168" width="22.112" height="213.718" fill="url(#paint57_linear_816_497)"/>
<path d="M23.5732 329.341L18.8369 331.91V244.853L23.5732 242.282V329.341Z" fill="#FFD400" stroke="white"/>
<path d="M24.0835 438.754L19.3472 441.323V354.266L24.0835 351.695V438.754Z" fill="#FFD400" stroke="white"/>
<path d="M450.695 238.655L439.223 232.784V329.835L450.695 334.325L450.695 238.655Z" fill="url(#paint58_linear_816_497)"/>
<path d="M450.695 348.631L440.042 344.559V437.873L450.268 445.313L450.695 348.631Z" fill="url(#paint59_linear_816_497)"/>
<path d="M451.546 346.396L450.278 348.164L438.477 344.861L438.023 342.61L449.136 337.609L451.546 346.396Z" fill="#87A2FC" stroke="white"/>
<path d="M440.81 343.242L449.56 345.692L447.915 340.358L440.81 343.242Z" fill="#2848BA" stroke="white"/>
<path d="M445.458 326.192L450.195 328.761V241.704L445.458 239.133V326.192Z" fill="#FFD400" stroke="white"/>
<path d="M445.458 435.626L449.375 438.107V351.094L445.458 348.615V435.626Z" fill="#FFD400" stroke="white"/>
<path d="M214.383 455.805H177.312C177.312 455.805 178.46 450.535 179.914 447.478C181.397 444.36 184.792 440.192 184.792 440.192H206.578C206.578 440.192 209.916 444.392 211.456 447.478C212.985 450.544 214.383 455.805 214.383 455.805Z" fill="url(#paint60_linear_816_497)"/>
<path d="M170.484 183.453H219.911L216.334 203.576H212.757H178.938H175.362L170.484 183.453Z" fill="url(#paint61_linear_816_497)"/>
<path d="M212.757 203.576H177.963C177.963 203.576 177.985 211.145 179.264 215.719C180.611 220.539 184.792 227.168 184.792 227.168H206.578C206.578 227.168 210.237 220.455 211.456 215.719C212.64 211.117 212.757 203.576 212.757 203.576Z" fill="url(#paint62_linear_816_497)"/>
<rect x="184.466" y="227.168" width="22.112" height="213.718" fill="url(#paint63_linear_816_497)"/>
<path d="M386.934 453.972H374.33C374.33 453.972 374.72 448.717 375.215 445.669C375.719 442.56 376.873 438.404 376.873 438.404H384.28C384.28 438.404 385.415 442.591 385.939 445.669C386.459 448.726 386.934 453.972 386.934 453.972Z" fill="url(#paint64_linear_816_497)"/>
<path d="M372.008 182.407H388.813L387.597 202.472H386.381H374.883H373.667L372.008 182.407Z" fill="url(#paint65_linear_816_497)"/>
<path d="M386.381 202.472H374.551C374.551 202.472 374.558 210.019 374.993 214.58C375.451 219.385 376.873 225.996 376.873 225.996H384.28C384.28 225.996 385.524 219.302 385.938 214.58C386.341 209.99 386.381 202.472 386.381 202.472Z" fill="url(#paint66_linear_816_497)"/>
<rect x="376.762" y="225.996" width="7.51808" height="213.1" fill="url(#paint67_linear_816_497)"/>
<path d="M417.605 455.805H380.535C380.535 455.805 381.683 450.535 383.137 447.478C384.619 444.36 388.014 440.192 388.014 440.192H409.801C409.801 440.192 413.139 444.392 414.679 447.478C416.208 450.544 417.605 455.805 417.605 455.805Z" fill="url(#paint68_linear_816_497)"/>
<path d="M373.707 183.453H423.133L419.556 203.576H415.979H382.161H378.584L373.707 183.453Z" fill="url(#paint69_linear_816_497)"/>
<path d="M415.979 203.576H381.186C381.186 203.576 381.207 211.145 382.486 215.719C383.834 220.539 388.014 227.168 388.014 227.168H409.801C409.801 227.168 413.46 220.455 414.679 215.719C415.863 211.117 415.979 203.576 415.979 203.576Z" fill="url(#paint70_linear_816_497)"/>
<rect x="387.689" y="227.168" width="22.112" height="213.718" fill="url(#paint71_linear_816_497)"/>
<path d="M416.487 456.258L457.182 530.93H15.0908L64.7764 456.258H416.487Z" fill="url(#paint72_linear_816_497)" stroke="#B1CCFF" stroke-width="3"/>
<path d="M61.7744 460.25H419.201" stroke="#B1CCFF" stroke-width="3"/>
<path d="M55.5576 470.224H423.805" stroke="#B1CCFF" stroke-width="3"/>
<path d="M49.1152 478.708L428.407 478.708" stroke="#B1CCFF" stroke-width="3"/>
<path d="M43.1616 487.861H433.935" stroke="#B1CCFF" stroke-width="3"/>
<path d="M38.0654 497.206L438.536 496.831" stroke="#B1CCFF" stroke-width="3"/>
<path d="M31.8525 505.595H444.057" stroke="#B1CCFF" stroke-width="3"/>
<path d="M26.0898 514.727H447.9" stroke="#B1CCFF" stroke-width="3"/>
<path d="M21.2349 523.404H453.264" stroke="#B1CCFF" stroke-width="3"/>
<g clip-path="url(#clip0_816_497)">
<path d="M228.09 102.864C228.071 102.954 228.07 103.046 228.088 103.135C228.106 103.225 228.142 103.31 228.193 103.386C228.297 103.54 228.459 103.647 228.644 103.684C228.829 103.721 229.021 103.684 229.178 103.583C229.336 103.481 229.445 103.323 229.483 103.142C229.51 103.003 229.59 102.878 229.706 102.793C229.823 102.708 229.968 102.669 230.112 102.683C230.257 102.698 230.391 102.764 230.488 102.87C230.585 102.976 230.637 103.114 230.636 103.256C230.636 103.44 230.711 103.616 230.844 103.747C230.977 103.877 231.158 103.95 231.346 103.95C231.535 103.95 231.716 103.877 231.849 103.747C231.982 103.616 232.057 103.44 232.057 103.256C232.059 102.769 231.876 102.3 231.543 101.938C231.21 101.577 230.751 101.349 230.255 101.3C229.76 101.252 229.264 101.385 228.863 101.674C228.463 101.963 228.187 102.387 228.09 102.864Z" fill="white"/>
<path d="M240.747 103.95C240.936 103.95 241.117 103.877 241.25 103.747C241.383 103.617 241.458 103.44 241.458 103.256C241.459 103.116 241.514 102.982 241.61 102.878C241.707 102.775 241.839 102.71 241.981 102.696C242.124 102.682 242.266 102.72 242.382 102.802C242.498 102.884 242.578 103.005 242.608 103.142C242.646 103.323 242.756 103.481 242.913 103.583C242.991 103.633 243.078 103.668 243.17 103.685C243.261 103.703 243.356 103.702 243.447 103.684C243.539 103.666 243.626 103.63 243.703 103.579C243.78 103.528 243.847 103.462 243.898 103.386C243.95 103.31 243.985 103.225 244.003 103.135C244.021 103.046 244.02 102.954 244.002 102.865C243.899 102.393 243.622 101.975 243.223 101.691C242.824 101.407 242.332 101.276 241.841 101.325C241.35 101.373 240.894 101.597 240.562 101.954C240.229 102.31 240.043 102.774 240.039 103.256C240.039 103.44 240.114 103.616 240.246 103.746C240.379 103.876 240.559 103.95 240.747 103.95Z" fill="white"/>
<path d="M248.465 92.5045C248.386 92.3959 248.276 92.3119 248.149 92.2626C248.022 92.2134 247.883 92.2009 247.749 92.2267L242.882 93.1635C242.265 93.2797 241.627 93.2228 241.042 92.9994C237.838 91.7775 234.281 91.7775 231.077 92.9994C230.492 93.2227 229.854 93.2796 229.237 93.1635L224.344 92.2267C224.21 92.2005 224.071 92.2127 223.945 92.262C223.818 92.3114 223.709 92.3956 223.63 92.5045C223.549 92.6134 223.502 92.7428 223.495 92.8773C223.487 93.0117 223.52 93.1453 223.589 93.262C223.982 93.9385 224.336 94.6356 224.651 95.3502C225.018 96.1581 225.305 96.797 225.887 97.2691C225.371 98.4617 225.121 99.7475 225.153 101.041C225.156 101.351 225.136 101.659 225.093 101.966C224.97 102.58 224.902 103.203 224.891 103.829C224.903 104.541 224.998 105.249 225.173 105.94C225.364 106.783 225.502 107.636 225.587 108.495C225.599 108.617 225.644 108.733 225.717 108.833C225.79 108.932 225.889 109.011 226.003 109.061C227.263 110.431 228.803 111.528 230.525 112.278C232.246 113.029 234.111 113.418 235.996 113.419H236.045H236.097C237.982 113.418 239.846 113.029 241.568 112.278C243.29 111.528 244.83 110.431 246.09 109.061C246.203 109.01 246.3 108.931 246.372 108.832C246.445 108.732 246.489 108.616 246.501 108.495C246.588 107.639 246.727 106.788 246.917 105.948C247.268 104.645 247.295 103.279 246.997 101.963C246.955 101.657 246.935 101.348 246.938 101.039C246.969 99.7449 246.719 98.4591 246.204 97.2666C246.78 96.7944 247.069 96.1556 247.439 95.3401C247.754 94.6255 248.108 93.9284 248.501 93.2519C248.568 93.1367 248.601 93.0054 248.594 92.8731C248.588 92.7407 248.543 92.6129 248.465 92.5045ZM231.71 99.5997H231.736L231.759 99.6123C232.463 99.8951 233.489 100.986 234.396 101.95C234.605 102.173 234.807 102.387 235.006 102.594C234.277 103.352 234.081 103.673 233.993 103.89C233.887 104.163 233.846 104.455 233.871 104.746C233.539 105.399 233.032 105.952 232.403 106.346C231.774 106.739 231.048 106.959 230.302 106.98H230.283C228.422 106.98 226.766 105.624 226.313 103.743C226.329 103.263 226.382 102.784 226.473 102.312C226.473 102.289 227.091 100.143 228.981 99.5063C229.869 99.1941 230.846 99.2275 231.71 99.5997ZM240.333 99.6224L240.357 99.6098H240.382C241.243 99.2348 242.218 99.1969 243.107 99.5038C244.996 100.14 245.606 102.281 245.614 102.309C245.757 102.986 245.803 103.678 245.751 104.367C245.681 104.427 245.624 104.501 245.586 104.584C245.269 105.279 244.759 105.872 244.113 106.296C243.467 106.72 242.711 106.957 241.933 106.98H241.915C241.127 106.962 240.361 106.723 239.708 106.292C239.054 105.861 238.541 105.256 238.229 104.549C238.226 104.326 238.182 104.105 238.1 103.897C238.028 103.729 237.933 103.571 237.818 103.428C237.592 103.143 237.35 102.871 237.095 102.612C237.294 102.405 237.495 102.19 237.705 101.968C238.604 100.999 239.63 99.9103 240.333 99.6224ZM235.303 104.773C235.271 104.653 235.271 104.527 235.303 104.407C235.508 104.093 235.753 103.805 236.032 103.551C236.291 103.822 236.461 104.008 236.57 104.14C236.626 104.356 236.694 104.569 236.774 104.778C236.722 105.056 236.541 105.485 236.032 106.107C235.533 105.48 235.355 105.051 235.303 104.773ZM236.097 112.03H236.045H235.996C234.287 112.029 232.597 111.671 231.04 110.981C229.483 110.292 228.095 109.286 226.967 108.031C226.928 107.697 226.887 107.394 226.843 107.117C227.801 107.922 229.02 108.37 230.283 108.379H230.307C231.113 108.365 231.905 108.176 232.627 107.827C233.35 107.478 233.984 106.976 234.484 106.359C234.79 106.817 235.141 107.245 235.531 107.637L236.048 108.17L236.565 107.637C236.975 107.224 237.341 106.771 237.658 106.286C238.16 106.925 238.804 107.445 239.541 107.806C240.279 108.167 241.091 108.359 241.915 108.369H241.939C243.14 108.355 244.302 107.946 245.237 107.208C245.198 107.46 245.159 107.733 245.126 108.031C243.998 109.286 242.61 110.292 241.053 110.982C239.496 111.671 237.806 112.029 236.097 112.03ZM246.144 94.782C245.684 95.792 245.5 96.1506 244.981 96.4005C244.962 96.4109 244.944 96.4227 244.927 96.4359L244.872 96.4712L244.813 96.5268C244.813 96.5394 244.784 96.552 244.774 96.5647L244.725 96.6328C244.715 96.6466 244.705 96.6609 244.697 96.6758C244.682 96.7006 244.67 96.7269 244.66 96.754C244.653 96.7679 244.647 96.7822 244.642 96.797C244.633 96.825 244.626 96.8537 244.622 96.8828C244.622 96.898 244.622 96.9106 244.622 96.9257C244.622 96.9409 244.622 96.9889 244.622 97.0192C244.62 97.0326 244.62 97.0461 244.622 97.0596C244.624 97.0919 244.629 97.124 244.637 97.1555C244.636 97.1681 244.636 97.1808 244.637 97.1934C244.645 97.2258 244.657 97.2572 244.673 97.2868C244.673 97.2977 244.673 97.3087 244.673 97.3196C244.673 97.3255 244.673 97.3314 244.673 97.3373C245.005 97.9373 245.241 98.5837 245.371 99.2538C244.864 98.766 244.252 98.3943 243.58 98.1655C242.329 97.7366 240.955 97.8009 239.752 98.3448C238.772 98.7639 237.699 99.9027 236.65 101.006C236.443 101.228 236.242 101.44 236.045 101.642C235.851 101.44 235.65 101.228 235.443 101.006C234.409 99.9027 233.331 98.7639 232.341 98.3448C231.138 97.7995 229.764 97.7352 228.513 98.1655C227.841 98.3943 227.229 98.766 226.722 99.2538C226.851 98.5838 227.086 97.9374 227.417 97.3373C227.417 97.3373 227.417 97.3373 227.417 97.3222C227.417 97.3095 227.417 97.2994 227.417 97.2893C227.433 97.2597 227.445 97.2284 227.453 97.1959V97.158C227.461 97.1265 227.466 97.0944 227.469 97.0621V97.0318C227.469 97.0015 227.469 96.9687 227.469 96.9384C227.469 96.9081 227.469 96.9106 227.469 96.8954C227.464 96.8663 227.457 96.8376 227.448 96.8096C227.448 96.7944 227.435 96.7818 227.43 96.7667C227.42 96.7395 227.408 96.7133 227.394 96.6884C227.385 96.6735 227.376 96.6592 227.365 96.6455L227.316 96.5773L227.277 96.5394L227.218 96.4839L227.164 96.4485C227.147 96.4353 227.128 96.4235 227.109 96.4132H227.096C226.579 96.1607 226.391 95.8021 225.933 94.7921C225.822 94.5093 225.69 94.2063 225.525 93.868L228.95 94.527C229.83 94.6943 230.741 94.6137 231.576 94.2947C234.449 93.1972 237.641 93.1972 240.514 94.2947C241.35 94.6132 242.26 94.6937 243.14 94.527L246.568 93.868C246.403 94.2063 246.266 94.5093 246.144 94.782Z" fill="url(#paint73_linear_816_497)"/>
</g>
<defs>
<filter id="filter0_f_816_497" x="12.6167" y="123.928" width="442.145" height="324.896" filterUnits="userSpaceOnUse" color-interpolation-filters="sRGB">
<feFlood flood-opacity="0" result="BackgroundImageFix"/>
<feBlend mode="normal" in="SourceGraphic" in2="BackgroundImageFix" result="shape"/>
<feGaussianBlur stdDeviation="45" result="effect1_foregroundBlur_816_497"/>
</filter>
<filter id="filter1_f_816_497" x="57.4585" y="128.817" width="358.722" height="22.1685" filterUnits="userSpaceOnUse" color-interpolation-filters="sRGB">
<feFlood flood-opacity="0" result="BackgroundImageFix"/>
<feBlend mode="normal" in="SourceGraphic" in2="BackgroundImageFix" result="shape"/>
<feGaussianBlur stdDeviation="2" result="effect1_foregroundBlur_816_497"/>
</filter>
<filter id="filter2_f_816_497" x="57.4585" y="128.817" width="358.722" height="14.2974" filterUnits="userSpaceOnUse" color-interpolation-filters="sRGB">
<feFlood flood-opacity="0" result="BackgroundImageFix"/>
<feBlend mode="normal" in="SourceGraphic" in2="BackgroundImageFix" result="shape"/>
<feGaussianBlur stdDeviation="2" result="effect1_foregroundBlur_816_497"/>
</filter>
<linearGradient id="paint0_linear_816_497" x1="104.46" y1="334.198" x2="369.477" y2="334.198" gradientUnits="userSpaceOnUse">
<stop offset="0.0565754" stop-color="#121A6A"/>
<stop offset="0.4815" stop-color="#87A2FC"/>
<stop offset="0.892863" stop-color="#121A6A"/>
</linearGradient>
<linearGradient id="paint1_linear_816_497" x1="130.689" y1="-2.45258e-07" x2="126.166" y2="182.129" gradientUnits="userSpaceOnUse">
<stop stop-color="#FED401"/>
<stop offset="1" stop-color="#87A2FC"/>
</linearGradient>
<linearGradient id="paint2_linear_816_497" x1="18.0545" y1="349.074" x2="105.749" y2="349.074" gradientUnits="userSpaceOnUse">
<stop stop-color="#00042D"/>
<stop offset="1" stop-color="#121A6A"/>
</linearGradient>
<linearGradient id="paint3_linear_816_497" x1="450.722" y1="344.231" x2="370.281" y2="334.898" gradientUnits="userSpaceOnUse">
<stop stop-color="#00042D"/>
<stop offset="1" stop-color="#121A6A"/>
</linearGradient>
<linearGradient id="paint4_linear_816_497" x1="37.7206" y1="160.872" x2="37.7206" y2="180.591" gradientUnits="userSpaceOnUse">
<stop stop-color="#87A2FC"/>
<stop offset="0.801301" stop-color="#121A6A"/>
</linearGradient>
<linearGradient id="paint5_linear_816_497" x1="434.924" y1="162.601" x2="434.924" y2="182.32" gradientUnits="userSpaceOnUse">
<stop stop-color="#87A2FC"/>
<stop offset="1" stop-color="#2848BA"/>
</linearGradient>
<linearGradient id="paint6_linear_816_497" x1="23.8589" y1="133.541" x2="447.498" y2="133.541" gradientUnits="userSpaceOnUse">
<stop stop-color="#00042D"/>
<stop offset="0.0786281" stop-color="#2848BA"/>
<stop offset="0.941162" stop-color="#2848BA"/>
<stop offset="1" stop-color="#00042D"/>
</linearGradient>
<linearGradient id="paint7_linear_816_497" x1="233.797" y1="10.0935" x2="233.797" y2="56.4522" gradientUnits="userSpaceOnUse">
<stop offset="0.188865" stop-color="#87A2FC"/>
<stop offset="1" stop-color="#2848BA"/>
</linearGradient>
<linearGradient id="paint8_linear_816_497" x1="237.639" y1="135.178" x2="237.639" y2="169.025" gradientUnits="userSpaceOnUse">
<stop offset="0.310708" stop-color="#87A2FC"/>
<stop offset="1" stop-color="#2848BA"/>
</linearGradient>
<linearGradient id="paint9_linear_816_497" x1="240.097" y1="-0.210622" x2="240.097" y2="6.87367" gradientUnits="userSpaceOnUse">
<stop stop-color="#87A2FC"/>
<stop offset="1" stop-color="#2848BA"/>
</linearGradient>
<linearGradient id="paint10_linear_816_497" x1="54.5967" y1="227.642" x2="54.5967" y2="330.392" gradientUnits="userSpaceOnUse">
<stop stop-opacity="0"/>
<stop offset="1"/>
</linearGradient>
<linearGradient id="paint11_linear_816_497" x1="18.0281" y1="295.362" x2="30.3197" y2="295.362" gradientUnits="userSpaceOnUse">
<stop stop-color="#87A2FC"/>
<stop offset="1" stop-color="#2848BA"/>
</linearGradient>
<linearGradient id="paint12_linear_816_497" x1="18.3536" y1="382.546" x2="29.5024" y2="382.546" gradientUnits="userSpaceOnUse">
<stop offset="0.0659618" stop-color="#87A2FC"/>
<stop offset="1" stop-color="#2848BA"/>
</linearGradient>
<linearGradient id="paint13_linear_816_497" x1="236.645" y1="356.339" x2="236.645" y2="454.592" gradientUnits="userSpaceOnUse">
<stop stop-color="#87A2FC"/>
<stop offset="0.695239" stop-color="#2848BA"/>
</linearGradient>
<linearGradient id="paint14_linear_816_497" x1="318.536" y1="382.979" x2="318.536" y2="328.663" gradientUnits="userSpaceOnUse">
<stop offset="0.254808" stop-color="#FFD400"/>
<stop offset="1" stop-color="#87A2FC"/>
</linearGradient>
<linearGradient id="paint15_linear_816_497" x1="161.202" y1="411.348" x2="161.202" y2="334.89" gradientUnits="userSpaceOnUse">
<stop offset="0.254808" stop-color="#FFD400"/>
<stop offset="0.627404" stop-color="#C3BB7E"/>
<stop offset="1" stop-color="#87A2FC"/>
</linearGradient>
<linearGradient id="paint16_linear_816_497" x1="139.279" y1="271.579" x2="183.771" y2="271.579" gradientUnits="userSpaceOnUse">
<stop offset="0.254808" stop-color="#FFD400"/>
<stop offset="1" stop-color="#87A2FC"/>
</linearGradient>
<linearGradient id="paint17_linear_816_497" x1="296.613" y1="271.579" x2="341.105" y2="271.579" gradientUnits="userSpaceOnUse">
<stop offset="0.254808" stop-color="#FFD400"/>
<stop offset="1" stop-color="#87A2FC"/>
</linearGradient>
<linearGradient id="paint18_linear_816_497" x1="217.946" y1="271.579" x2="262.438" y2="271.579" gradientUnits="userSpaceOnUse">
<stop offset="0.254808" stop-color="#FFD400"/>
<stop offset="1" stop-color="#87A2FC"/>
</linearGradient>
<linearGradient id="paint19_linear_816_497" x1="237.611" y1="362.567" x2="237.611" y2="375.713" gradientUnits="userSpaceOnUse">
<stop stop-color="#FFD400"/>
<stop offset="0.778846" stop-color="#87A2FC"/>
</linearGradient>
<linearGradient id="paint20_linear_816_497" x1="251.476" y1="381.94" x2="251.476" y2="395.087" gradientUnits="userSpaceOnUse">
<stop stop-color="#FFD400"/>
<stop offset="0.778846" stop-color="#87A2FC"/>
</linearGradient>
<linearGradient id="paint21_linear_816_497" x1="224.394" y1="381.94" x2="224.394" y2="395.087" gradientUnits="userSpaceOnUse">
<stop stop-color="#FFD400"/>
<stop offset="0.778846" stop-color="#87A2FC"/>
</linearGradient>
<linearGradient id="paint22_linear_816_497" x1="224.394" y1="401.314" x2="224.394" y2="453.9" gradientUnits="userSpaceOnUse">
<stop stop-color="#FFD400"/>
<stop offset="0.778846" stop-color="#87A2FC"/>
</linearGradient>
<linearGradient id="paint23_linear_816_497" x1="251.476" y1="401.314" x2="251.476" y2="453.9" gradientUnits="userSpaceOnUse">
<stop stop-color="#FFD400"/>
<stop offset="0.778846" stop-color="#87A2FC"/>
</linearGradient>
<radialGradient id="paint24_radial_816_497" cx="0" cy="0" r="1" gradientUnits="userSpaceOnUse" gradientTransform="translate(236.655 347.456) scale(31.328 9.02638)">
<stop stop-color="#87A2FC"/>
<stop offset="1" stop-color="#122154"/>
</radialGradient>
<linearGradient id="paint25_linear_816_497" x1="221.25" y1="63.5479" x2="221.25" y2="111.17" gradientUnits="userSpaceOnUse">
<stop offset="0.21719" stop-color="#87A2FC"/>
<stop offset="0.962735" stop-color="#121A6A"/>
</linearGradient>
<linearGradient id="paint26_linear_816_497" x1="56.1321" y1="195.788" x2="56.1321" y2="219.796" gradientUnits="userSpaceOnUse">
<stop stop-color="#87A2FC"/>
<stop offset="0.787817" stop-color="#2848BA"/>
</linearGradient>
<linearGradient id="paint27_linear_816_497" x1="411.361" y1="194.214" x2="411.361" y2="210.744" gradientUnits="userSpaceOnUse">
<stop stop-color="#87A2FC"/>
<stop offset="1" stop-color="#2848BA"/>
</linearGradient>
<linearGradient id="paint28_linear_816_497" x1="49.986" y1="176.109" x2="51.121" y2="188.319" gradientUnits="userSpaceOnUse">
<stop stop-color="#87A2FC"/>
<stop offset="1" stop-color="#2848BA"/>
</linearGradient>
<linearGradient id="paint29_linear_816_497" x1="428.16" y1="176.109" x2="423.984" y2="194.29" gradientUnits="userSpaceOnUse">
<stop stop-color="#87A2FC"/>
<stop offset="1" stop-color="#2848BA"/>
</linearGradient>
<linearGradient id="paint30_linear_816_497" x1="249.219" y1="212.765" x2="249.166" y2="195.788" gradientUnits="userSpaceOnUse">
<stop offset="0.40741" stop-color="#FFD400"/>
<stop offset="1" stop-color="#87A2FC"/>
</linearGradient>
<linearGradient id="paint31_linear_816_497" x1="266.729" y1="172.173" x2="266.729" y2="181.619" gradientUnits="userSpaceOnUse">
<stop stop-color="#87A2FC"/>
<stop offset="0.730757" stop-color="#2848BA"/>
</linearGradient>
<linearGradient id="paint32_linear_816_497" x1="98.7433" y1="441.552" x2="98.7433" y2="457.12" gradientUnits="userSpaceOnUse">
<stop stop-color="#F8EC80"/>
<stop offset="1" stop-color="#2848BA"/>
</linearGradient>
<linearGradient id="paint33_linear_816_497" x1="105.598" y1="203.89" x2="88.0596" y2="201.783" gradientUnits="userSpaceOnUse">
<stop stop-color="#F8EC80"/>
<stop offset="0.768742" stop-color="#87A2FC"/>
</linearGradient>
<linearGradient id="paint34_linear_816_497" x1="98.5771" y1="205.62" x2="98.5771" y2="229.144" gradientUnits="userSpaceOnUse">
<stop stop-color="#87A2FC"/>
<stop offset="1" stop-color="#F8EC80"/>
</linearGradient>
<linearGradient id="paint35_linear_816_497" x1="98.6326" y1="350.57" x2="102.392" y2="350.57" gradientUnits="userSpaceOnUse">
<stop stop-color="#87A2FC"/>
<stop offset="1" stop-color="#F8EC80"/>
</linearGradient>
<linearGradient id="paint36_linear_816_497" x1="373.257" y1="443.533" x2="373.257" y2="458.694" gradientUnits="userSpaceOnUse">
<stop stop-color="#F8EC80"/>
<stop offset="1" stop-color="#2848BA"/>
</linearGradient>
<linearGradient id="paint37_linear_816_497" x1="380.112" y1="212.07" x2="362.587" y2="209.908" gradientUnits="userSpaceOnUse">
<stop stop-color="#F8EC80"/>
<stop offset="0.768742" stop-color="#87A2FC"/>
</linearGradient>
<linearGradient id="paint38_linear_816_497" x1="373.091" y1="213.754" x2="373.091" y2="236.665" gradientUnits="userSpaceOnUse">
<stop stop-color="#87A2FC"/>
<stop offset="1" stop-color="#F8EC80"/>
</linearGradient>
<linearGradient id="paint39_linear_816_497" x1="373.146" y1="354.923" x2="376.905" y2="354.923" gradientUnits="userSpaceOnUse">
<stop stop-color="#87A2FC"/>
<stop offset="1" stop-color="#F8EC80"/>
</linearGradient>
<linearGradient id="paint40_linear_816_497" x1="0" y1="106.556" x2="472" y2="106.556" gradientUnits="userSpaceOnUse">
<stop stop-color="#87A2FC"/>
<stop offset="1" stop-color="#121A6A"/>
</linearGradient>
<radialGradient id="paint41_radial_816_497" cx="0" cy="0" r="1" gradientUnits="userSpaceOnUse" gradientTransform="translate(236.967 99.9826) rotate(-1.65165) scale(168.042 32.718)">
<stop stop-color="#87A2FC"/>
<stop offset="0.825678" stop-color="#2848BA"/>
</radialGradient>
<linearGradient id="paint42_linear_816_497" x1="81.9447" y1="440.192" x2="81.9447" y2="455.805" gradientUnits="userSpaceOnUse">
<stop stop-color="#F8EC80"/>
<stop offset="1" stop-color="#2848BA"/>
</linearGradient>
<linearGradient id="paint43_linear_816_497" x1="102.106" y1="201.841" x2="55.5554" y2="185.441" gradientUnits="userSpaceOnUse">
<stop stop-color="#F8EC80"/>
<stop offset="0.768742" stop-color="#87A2FC"/>
</linearGradient>
<linearGradient id="paint44_linear_816_497" x1="81.457" y1="203.576" x2="81.457" y2="227.168" gradientUnits="userSpaceOnUse">
<stop stop-color="#87A2FC"/>
<stop offset="1" stop-color="#F8EC80"/>
</linearGradient>
<linearGradient id="paint45_linear_816_497" x1="81.6195" y1="348.946" x2="92.6755" y2="348.946" gradientUnits="userSpaceOnUse">
<stop stop-color="#87A2FC"/>
<stop offset="1" stop-color="#F8EC80"/>
</linearGradient>
<linearGradient id="paint46_linear_816_497" x1="140.125" y1="440.192" x2="140.125" y2="455.805" gradientUnits="userSpaceOnUse">
<stop stop-color="#F8EC80"/>
<stop offset="1" stop-color="#2848BA"/>
</linearGradient>
<linearGradient id="paint47_linear_816_497" x1="160.286" y1="201.841" x2="113.736" y2="185.441" gradientUnits="userSpaceOnUse">
<stop stop-color="#F8EC80"/>
<stop offset="0.768742" stop-color="#87A2FC"/>
</linearGradient>
<linearGradient id="paint48_linear_816_497" x1="139.638" y1="203.576" x2="139.638" y2="227.168" gradientUnits="userSpaceOnUse">
<stop stop-color="#87A2FC"/>
<stop offset="1" stop-color="#F8EC80"/>
</linearGradient>
<linearGradient id="paint49_linear_816_497" x1="139.8" y1="348.946" x2="150.856" y2="348.946" gradientUnits="userSpaceOnUse">
<stop stop-color="#87A2FC"/>
<stop offset="1" stop-color="#F8EC80"/>
</linearGradient>
<linearGradient id="paint50_linear_816_497" x1="340.889" y1="440.192" x2="340.889" y2="455.805" gradientUnits="userSpaceOnUse">
<stop stop-color="#F8EC80"/>
<stop offset="1" stop-color="#2848BA"/>
</linearGradient>
<linearGradient id="paint51_linear_816_497" x1="361.05" y1="201.841" x2="314.5" y2="185.441" gradientUnits="userSpaceOnUse">
<stop stop-color="#F8EC80"/>
<stop offset="0.768742" stop-color="#87A2FC"/>
</linearGradient>
<linearGradient id="paint52_linear_816_497" x1="340.401" y1="203.576" x2="340.401" y2="227.168" gradientUnits="userSpaceOnUse">
<stop stop-color="#87A2FC"/>
<stop offset="1" stop-color="#F8EC80"/>
</linearGradient>
<linearGradient id="paint53_linear_816_497" x1="340.564" y1="348.946" x2="351.62" y2="348.946" gradientUnits="userSpaceOnUse">
<stop stop-color="#87A2FC"/>
<stop offset="1" stop-color="#F8EC80"/>
</linearGradient>
<linearGradient id="paint54_linear_816_497" x1="282.708" y1="440.192" x2="282.708" y2="455.805" gradientUnits="userSpaceOnUse">
<stop stop-color="#F8EC80"/>
<stop offset="1" stop-color="#2848BA"/>
</linearGradient>
<linearGradient id="paint55_linear_816_497" x1="302.869" y1="201.841" x2="256.319" y2="185.441" gradientUnits="userSpaceOnUse">
<stop stop-color="#F8EC80"/>
<stop offset="0.768742" stop-color="#87A2FC"/>
</linearGradient>
<linearGradient id="paint56_linear_816_497" x1="282.221" y1="203.576" x2="282.221" y2="227.168" gradientUnits="userSpaceOnUse">
<stop stop-color="#87A2FC"/>
<stop offset="1" stop-color="#F8EC80"/>
</linearGradient>
<linearGradient id="paint57_linear_816_497" x1="282.383" y1="348.946" x2="293.439" y2="348.946" gradientUnits="userSpaceOnUse">
<stop stop-color="#87A2FC"/>
<stop offset="1" stop-color="#F8EC80"/>
</linearGradient>
<linearGradient id="paint58_linear_816_497" x1="450.994" y1="292.446" x2="438.844" y2="292.446" gradientUnits="userSpaceOnUse">
<stop stop-color="#87A2FC"/>
<stop offset="1" stop-color="#2848BA"/>
</linearGradient>
<linearGradient id="paint59_linear_816_497" x1="450.346" y1="379.996" x2="439.993" y2="379.996" gradientUnits="userSpaceOnUse">
<stop offset="0.0659618" stop-color="#87A2FC"/>
<stop offset="1" stop-color="#2848BA"/>
</linearGradient>
<linearGradient id="paint60_linear_816_497" x1="195.848" y1="440.192" x2="195.848" y2="455.805" gradientUnits="userSpaceOnUse">
<stop stop-color="#F8EC80"/>
<stop offset="1" stop-color="#2848BA"/>
</linearGradient>
<linearGradient id="paint61_linear_816_497" x1="216.009" y1="201.841" x2="169.458" y2="185.441" gradientUnits="userSpaceOnUse">
<stop stop-color="#F8EC80"/>
<stop offset="0.768742" stop-color="#87A2FC"/>
</linearGradient>
<linearGradient id="paint62_linear_816_497" x1="195.36" y1="203.576" x2="195.36" y2="227.168" gradientUnits="userSpaceOnUse">
<stop stop-color="#87A2FC"/>
<stop offset="1" stop-color="#F8EC80"/>
</linearGradient>
<linearGradient id="paint63_linear_816_497" x1="195.522" y1="348.946" x2="206.578" y2="348.946" gradientUnits="userSpaceOnUse">
<stop stop-color="#87A2FC"/>
<stop offset="1" stop-color="#F8EC80"/>
</linearGradient>
<linearGradient id="paint64_linear_816_497" x1="380.632" y1="438.404" x2="380.632" y2="453.972" gradientUnits="userSpaceOnUse">
<stop stop-color="#F8EC80"/>
<stop offset="1" stop-color="#2848BA"/>
</linearGradient>
<linearGradient id="paint65_linear_816_497" x1="387.487" y1="200.742" x2="369.948" y2="198.635" gradientUnits="userSpaceOnUse">
<stop stop-color="#F8EC80"/>
<stop offset="0.768742" stop-color="#87A2FC"/>
</linearGradient>
<linearGradient id="paint66_linear_816_497" x1="380.466" y1="202.472" x2="380.466" y2="225.996" gradientUnits="userSpaceOnUse">
<stop stop-color="#87A2FC"/>
<stop offset="1" stop-color="#F8EC80"/>
</linearGradient>
<linearGradient id="paint67_linear_816_497" x1="380.521" y1="347.422" x2="384.28" y2="347.422" gradientUnits="userSpaceOnUse">
<stop stop-color="#87A2FC"/>
<stop offset="1" stop-color="#F8EC80"/>
</linearGradient>
<linearGradient id="paint68_linear_816_497" x1="399.07" y1="440.192" x2="399.07" y2="455.805" gradientUnits="userSpaceOnUse">
<stop stop-color="#F8EC80"/>
<stop offset="1" stop-color="#2848BA"/>
</linearGradient>
<linearGradient id="paint69_linear_816_497" x1="419.231" y1="201.841" x2="372.681" y2="185.441" gradientUnits="userSpaceOnUse">
<stop stop-color="#F8EC80"/>
<stop offset="0.768742" stop-color="#87A2FC"/>
</linearGradient>
<linearGradient id="paint70_linear_816_497" x1="398.582" y1="203.576" x2="398.582" y2="227.168" gradientUnits="userSpaceOnUse">
<stop stop-color="#87A2FC"/>
<stop offset="1" stop-color="#F8EC80"/>
</linearGradient>
<linearGradient id="paint71_linear_816_497" x1="398.745" y1="348.946" x2="409.801" y2="348.946" gradientUnits="userSpaceOnUse">
<stop stop-color="#87A2FC"/>
<stop offset="1" stop-color="#F8EC80"/>
</linearGradient>
<linearGradient id="paint72_linear_816_497" x1="132.768" y1="460.142" x2="422.226" y2="562.239" gradientUnits="userSpaceOnUse">
<stop offset="0.141831" stop-color="#87A2FC"/>
<stop offset="1" stop-color="#2848BA"/>
</linearGradient>
<linearGradient id="paint73_linear_816_497" x1="236.044" y1="92.083" x2="236.044" y2="113.419" gradientUnits="userSpaceOnUse">
<stop stop-color="#E5EEFF"/>
</linearGradient>
<clipPath id="clip0_816_497">
<rect width="25.1014" height="21.3362" fill="white" transform="translate(223.496 92.0825)"/>
</clipPath>
</defs>
</svg>
