<svg width="277" height="145" viewBox="0 0 277 145" fill="none" xmlns="http://www.w3.org/2000/svg">
<path d="M0 24.2501C0.0137599 23.8816 0.17009 23.5319 0.437572 23.2712C0.705054 23.0105 1.06386 22.8582 1.44189 22.8448H10.4907C10.6808 22.8436 10.8693 22.879 11.0453 22.9491C11.2213 23.0192 11.3814 23.1225 11.5162 23.2532C11.6511 23.3838 11.7581 23.5391 11.8312 23.7102C11.9042 23.8813 11.9418 24.0647 11.9418 24.2501V42.9243H33.6903V24.2501C33.6903 23.8789 33.841 23.5228 34.1094 23.2595C34.3778 22.9962 34.7422 22.8471 35.123 22.8448H44.181C44.5599 22.858 44.9198 23.0101 45.1888 23.2706C45.4578 23.5311 45.6161 23.8808 45.6321 24.2501V73.3184C45.6161 73.6876 45.4578 74.0374 45.1888 74.2979C44.9198 74.5584 44.5599 74.7104 44.181 74.7237H35.123C34.9336 74.7237 34.7461 74.6874 34.5712 74.6167C34.3962 74.5461 34.2373 74.4426 34.1034 74.3121C33.9695 74.1816 33.8633 74.0267 33.7908 73.8562C33.7184 73.6857 33.6811 73.503 33.6811 73.3184V53.8244H11.9418V73.3184C11.9418 73.5037 11.9042 73.6872 11.8312 73.8583C11.7581 74.0294 11.6511 74.1847 11.5162 74.3153C11.3814 74.4459 11.2213 74.5492 11.0453 74.6193C10.8693 74.6894 10.6808 74.7249 10.4907 74.7237H1.44189C1.06386 74.7103 0.705054 74.5579 0.437572 74.2972C0.17009 74.0366 0.0137599 73.6868 0 73.3184V24.2501Z" fill="url(#paint0_linear_1076_1152)"/>
<path d="M85.9589 22.1071C91.374 22.091 96.6723 23.6405 101.184 26.5595C105.695 29.4785 109.217 33.6359 111.304 38.5058C113.391 43.3758 113.95 48.7396 112.909 53.9189C111.868 59.0982 109.274 63.8603 105.456 67.6029C101.638 71.3455 96.767 73.9005 91.459 74.9447C86.1509 75.989 80.6443 75.4756 75.6356 73.4695C70.6269 71.4635 66.3411 68.0548 63.3203 63.6746C60.2995 59.2944 58.6793 54.1395 58.6646 48.8618C58.6476 45.3565 59.3408 41.8825 60.7045 38.639C62.0682 35.3954 64.0755 32.4462 66.6114 29.9605C69.1472 27.4748 72.1616 25.5015 75.4817 24.1538C78.8018 22.8061 82.3623 22.1106 85.9589 22.1071ZM85.9589 63.6084C88.9737 63.6191 91.9239 62.7565 94.4348 61.1301C96.9458 59.5037 98.9043 57.1869 100.062 54.4737C101.219 51.7605 101.524 48.7733 100.936 45.8913C100.349 43.0092 98.8958 40.3623 96.762 38.2864C94.6282 36.2106 91.9097 34.7994 88.9515 34.2321C85.9934 33.6648 82.9289 33.9668 80.1472 35.1C77.3655 36.2331 74.992 38.1462 73.3278 40.5964C71.6637 43.0466 70.7841 45.9235 70.8005 48.8618C70.8296 52.7687 72.4369 56.5072 75.2741 59.2674C78.1114 62.0276 81.9501 63.5872 85.9589 63.6084Z" fill="url(#paint1_linear_1076_1152)"/>
<path d="M149.735 22.107C155.149 22.0928 160.447 23.6438 164.957 26.5639C169.468 29.4839 172.988 33.6419 175.074 38.5121C177.159 43.3822 177.716 48.7458 176.674 53.9245C175.632 59.1031 173.038 63.8644 169.22 67.6061C165.401 71.3478 160.53 73.9019 155.222 74.9454C149.914 75.989 144.408 75.475 139.4 73.4687C134.392 71.4623 130.107 68.0536 127.086 63.6736C124.066 59.2936 122.446 54.1391 122.431 48.8618C122.415 45.3561 123.11 41.8819 124.475 38.6383C125.839 35.3947 127.847 32.4455 130.384 29.9599C132.921 27.4743 135.936 25.5012 139.256 24.1536C142.577 22.806 146.138 22.1106 149.735 22.107ZM149.735 63.6084C152.75 63.6226 155.702 62.7631 158.216 61.1389C160.729 59.5147 162.691 57.1991 163.851 54.4863C165.011 51.7734 165.318 48.7856 164.733 45.9024C164.147 43.0192 162.696 40.3706 160.563 38.2929C158.43 36.2152 155.711 34.8023 152.753 34.2335C149.794 33.6647 146.729 33.9657 143.946 35.0983C141.163 36.2308 138.789 38.1439 137.124 40.5945C135.459 43.0451 134.578 45.9227 134.595 48.8618C134.622 52.7664 136.226 56.5035 139.059 59.2637C141.893 62.0238 145.729 63.5848 149.735 63.6084Z" fill="url(#paint2_linear_1076_1152)"/>
<path d="M0 93.7588C0.0137599 93.3903 0.17009 93.0406 0.437572 92.7799C0.705054 92.5192 1.06386 92.3669 1.44189 92.3535H10.4907C10.6808 92.3523 10.8693 92.3877 11.0453 92.4578C11.2213 92.5279 11.3814 92.6313 11.5162 92.7619C11.6511 92.8925 11.7581 93.0478 11.8312 93.2189C11.9042 93.39 11.9418 93.5735 11.9418 93.7588V112.433H33.6903V93.7588C33.6879 93.5735 33.7231 93.3895 33.7938 93.2175C33.8646 93.0455 33.9696 92.8889 34.1028 92.7566C34.2359 92.6243 34.3946 92.519 34.5697 92.4467C34.7448 92.3744 34.9328 92.3366 35.123 92.3354H44.181C44.563 92.349 44.9255 92.5036 45.1949 92.7679C45.4644 93.0321 45.6207 93.3864 45.6321 93.7588V142.827C45.6094 143.192 45.4481 143.535 45.1798 143.79C44.9115 144.044 44.5554 144.193 44.181 144.205H35.123C34.7406 144.205 34.3738 144.057 34.1034 143.794C33.833 143.53 33.6811 143.173 33.6811 142.8V123.315H11.9418V142.809C11.9406 142.994 11.9021 143.176 11.8285 143.346C11.7549 143.516 11.6477 143.671 11.513 143.8C11.3782 143.93 11.2186 144.032 11.0432 144.102C10.8678 144.171 10.68 144.207 10.4907 144.205H1.44189C1.0654 144.192 0.707868 144.041 0.440616 143.782C0.173365 143.523 0.0160329 143.176 0 142.809L0 93.7588Z" fill="url(#paint3_linear_1076_1152)"/>
<path d="M55.6699 142.287L79.4888 92.4077C79.6125 92.1729 79.797 91.9738 80.0239 91.83C80.2509 91.6862 80.5125 91.6027 80.7828 91.5879H81.5408C81.8113 91.6018 82.0733 91.6849 82.3004 91.8288C82.5276 91.9727 82.7119 92.1724 82.8348 92.4077L106.635 142.287C106.748 142.492 106.802 142.723 106.792 142.955C106.782 143.187 106.709 143.413 106.58 143.608C106.451 143.804 106.271 143.963 106.058 144.067C105.845 144.172 105.607 144.22 105.369 144.206H96.9209C95.553 144.206 94.9429 143.764 94.259 142.35L91.4861 136.494H70.8005L68.0277 142.431C67.8195 142.978 67.4392 143.447 66.9412 143.77C66.4432 144.094 65.8529 144.256 65.2548 144.233H56.9639C56.7196 144.256 56.4735 144.213 56.2524 144.109C56.0313 144.005 55.8438 143.844 55.7103 143.643C55.5768 143.442 55.5024 143.209 55.4953 142.97C55.4882 142.731 55.5486 142.495 55.6699 142.287ZM86.8831 126.423L81.1063 114.199H81.0324L75.3295 126.423H86.8831Z" fill="url(#paint4_linear_1076_1152)"/>
<path d="M139.78 91.5879C143.164 91.4931 146.533 92.0542 149.692 93.2388C152.851 94.4233 155.737 96.2077 158.183 98.4883C158.34 98.6116 158.468 98.7665 158.559 98.9424C158.649 99.1183 158.699 99.3112 158.706 99.5078C158.713 99.7044 158.677 99.9002 158.599 100.082C158.522 100.263 158.405 100.427 158.257 100.56L152.323 106.56C152.2 106.683 152.052 106.781 151.89 106.848C151.727 106.915 151.552 106.95 151.375 106.95C151.199 106.95 151.024 106.915 150.861 106.848C150.698 106.781 150.551 106.683 150.428 106.56C147.591 104.122 143.941 102.774 140.159 102.767C131.563 102.767 125.25 109.731 125.25 118.081C125.25 126.432 131.646 133.125 140.233 133.125C143.942 133.117 147.533 131.86 150.4 129.567C150.684 129.346 151.04 129.232 151.403 129.245C151.766 129.258 152.112 129.398 152.378 129.639L158.303 135.792C158.55 136.073 158.68 136.435 158.666 136.806C158.653 137.176 158.496 137.528 158.229 137.792C153.287 142.481 146.64 145.072 139.743 144.998C132.482 144.998 125.519 142.187 120.384 137.183C115.25 132.179 112.366 125.392 112.366 118.316C112.366 111.239 115.25 104.452 120.384 99.4482C125.519 94.4442 132.482 91.633 139.743 91.633L139.78 91.5879Z" fill="url(#paint5_linear_1076_1152)"/>
<path d="M171.187 94.1103C171.187 93.6324 171.382 93.1742 171.729 92.8363C172.076 92.4984 172.546 92.3086 173.036 92.3086H181.928C182.418 92.3086 182.888 92.4984 183.235 92.8363C183.581 93.1742 183.776 93.6324 183.776 94.1103V113.577L200.654 93.0473C201.026 92.6333 201.544 92.3698 202.105 92.3086H211.662C211.979 92.3197 212.287 92.4142 212.553 92.582C212.819 92.7498 213.034 92.9847 213.174 93.2618C213.314 93.5389 213.375 93.8478 213.349 94.1558C213.324 94.4638 213.214 94.7593 213.03 95.0111L195.237 116.73L214.647 141.332C214.837 141.591 214.95 141.896 214.974 142.214C214.998 142.531 214.932 142.849 214.783 143.133C214.634 143.416 214.408 143.654 214.13 143.821C213.852 143.988 213.532 144.078 213.206 144.079H202.669C202.163 144.072 201.677 143.887 201.301 143.557L183.739 120.288V142.404C183.739 142.882 183.544 143.34 183.198 143.678C182.851 144.016 182.381 144.206 181.891 144.206H172.999C172.509 144.206 172.039 144.016 171.692 143.678C171.345 143.34 171.15 142.882 171.15 142.404L171.187 94.1103Z" fill="url(#paint6_linear_1076_1152)"/>
<path d="M223.132 137.17L226.709 131.026C227.006 130.654 227.434 130.403 227.91 130.319C228.386 130.236 228.877 130.328 229.288 130.576C229.593 130.729 235.074 134.657 240.093 134.657C243.134 134.657 245.334 132.801 245.334 130.207C245.334 127.09 242.672 124.721 237.505 122.721C230.961 120.198 222.716 115.235 222.716 106.344C222.716 99.0017 228.567 91.5879 240.278 91.5879C248.19 91.5879 254.272 95.5245 256.555 97.146C257.479 97.6685 257.313 99.0017 257.008 99.5242L253.135 105.227C252.599 106.046 251.231 106.713 250.547 106.19C249.863 105.821 244.308 101.749 239.677 101.749C236.904 101.749 234.88 103.551 234.88 105.524C234.88 108.271 237.163 110.343 243.199 112.73C249.234 115.118 258.56 119.55 258.56 129.63C258.56 137.269 251.795 144.944 240.611 144.944C230.73 144.944 225.249 140.945 223.502 139.242C222.753 138.503 222.522 138.215 223.132 137.17Z" fill="url(#paint7_linear_1076_1152)"/>
<path d="M267.489 43.4924C267.489 43.4113 266.916 35.484 260.769 31.9437C257.884 30.2446 254.438 29.6961 251.148 30.4123H251.046H250.953C248.282 30.9168 243.883 34.0157 240.001 36.7182L237.394 38.5198C238.098 39.6029 238.743 40.7215 239.326 41.8709C239.618 42.4417 239.833 43.0474 239.964 43.6726C240.102 44.4566 240.102 45.2578 239.964 46.0418C240.509 48.7626 241.85 51.2714 243.827 53.2649C245.803 55.2584 248.33 56.6513 251.101 57.2752H251.157C253.899 57.7424 256.721 57.4458 259.298 56.4195C261.875 55.3933 264.102 53.679 265.724 51.4738C265.923 51.2092 266.174 50.9857 266.463 50.8162C267.151 48.4451 267.5 45.9926 267.498 43.5285C267.498 43.5285 267.489 43.5104 267.489 43.4924ZM258.884 46.8255C258.209 46.8231 257.562 46.5601 257.086 46.0941C256.61 45.6281 256.342 44.9971 256.342 44.3392C256.337 43.8403 256.144 43.3606 255.799 42.992C255.454 42.6235 254.981 42.3919 254.472 42.3417C253.962 42.2915 253.452 42.4262 253.038 42.72C252.624 43.0137 252.336 43.4459 252.229 43.9338C252.162 44.2526 252.032 44.5555 251.845 44.8252C251.658 45.0948 251.418 45.326 251.14 45.5054C250.861 45.6848 250.549 45.809 250.222 45.8709C249.894 45.9328 249.557 45.9312 249.23 45.8661C248.903 45.8011 248.592 45.6738 248.315 45.4917C248.038 45.3096 247.801 45.0762 247.617 44.8047C247.433 44.5333 247.306 44.2291 247.242 43.9097C247.179 43.5902 247.18 43.2617 247.247 42.9429C247.606 41.2503 248.595 39.7475 250.025 38.7251C251.455 37.7028 253.223 37.2337 254.987 37.4086C256.751 37.5834 258.386 38.3898 259.576 39.6717C260.765 40.9536 261.424 42.6199 261.426 44.3482C261.426 45.0052 261.158 45.6353 260.681 46.0999C260.205 46.5645 259.558 46.8255 258.884 46.8255Z" fill="url(#paint8_linear_1076_1152)"/>
<path d="M231.174 50.1223C233.411 48.3206 234.363 46.9333 234.742 45.9965C234.619 45.2084 234.539 44.4146 234.501 43.6183C234.215 43.0868 233.78 42.3211 233.05 41.186C231.887 41.8812 230.819 42.7166 229.871 43.6723C229.651 44.0607 229.543 44.4993 229.556 44.9425C229.529 45.9514 229.843 47.5819 231.174 50.1223Z" fill="url(#paint9_linear_1076_1152)"/>
<path d="M250.076 62.1308C247.19 61.5204 244.486 60.2786 242.165 58.4995C239.845 56.7204 237.97 54.4505 236.683 51.8613C235.22 53.3384 233.606 54.6665 231.867 55.825L229.667 57.3203L228.299 55.1043C227.205 53.4631 226.276 51.7223 225.526 49.9065C223.318 51.7066 220.729 53.009 217.944 53.7207C215.159 54.4323 212.247 54.5357 209.416 54.0233H209.333C204.933 53.1085 201.005 50.7095 198.241 47.249C198.186 48.2399 198.112 49.3299 198.001 50.519C201.031 55.6945 205.158 60.1813 210.107 63.6809C215.055 67.1804 220.712 69.6124 226.7 70.8148H226.876H227.051C233.032 72.0056 239.204 71.941 245.156 70.6254C251.109 69.3098 256.705 66.7733 261.574 63.1848C261.916 62.1758 262.239 61.239 262.563 60.3922C258.752 62.3312 254.384 62.9657 250.159 62.1938L250.076 62.1308Z" fill="url(#paint10_linear_1076_1152)"/>
<path d="M210.35 49.1498H210.405C213.032 49.5927 215.734 49.3351 218.223 48.4043C220.713 47.4734 222.897 45.9039 224.547 43.8619C224.672 42.8307 225.032 41.8398 225.6 40.9612C226.072 40.2585 226.996 39.2586 230.102 37.1326C229.559 36.2799 229.005 35.379 228.438 34.4301C225.97 30.4305 223.169 25.8993 220.914 24.4219L220.84 24.3588L220.757 24.3048C218.016 22.3963 214.629 21.5839 211.292 22.0347C204.203 22.9355 200.487 30.0071 200.45 30.0791C199.776 31.664 199.235 33.3 198.833 34.9706C199.018 41.9611 203.833 47.8165 210.35 49.1498ZM205.682 33.241C206.38 31.6523 207.657 30.3723 209.268 29.6488C210.878 28.9252 212.707 28.8094 214.399 29.3239C216.092 29.8383 217.529 30.9464 218.432 32.4338C219.335 33.9212 219.64 35.6821 219.287 37.3759C219.235 37.7075 219.113 38.0252 218.93 38.3097C218.748 38.5942 218.508 38.8395 218.225 39.0308C217.942 39.2222 217.622 39.3554 217.285 39.4226C216.947 39.4898 216.599 39.4895 216.262 39.4217C215.925 39.3539 215.605 39.22 215.323 39.0281C215.04 38.8363 214.801 38.5905 214.619 38.3057C214.436 38.0209 214.316 37.7029 214.263 37.3712C214.211 37.0395 214.229 36.7009 214.315 36.3759C214.409 35.8853 214.314 35.3779 214.049 34.9511C213.783 34.5242 213.365 34.2079 212.875 34.0629C212.385 33.9178 211.857 33.9541 211.393 34.1648C210.928 34.3755 210.56 34.7459 210.359 35.2049C210.083 35.7911 209.583 36.2495 208.966 36.4824C208.349 36.7154 207.663 36.7046 207.054 36.4524C206.445 36.2002 205.961 35.7264 205.705 35.1318C205.449 34.5371 205.44 33.8685 205.682 33.2681V33.241Z" fill="url(#paint11_linear_1076_1152)"/>
<path d="M255.501 11.9541C246.24 6.10783 235.057 3.8817 224.186 5.72029C221.025 6.24795 217.776 5.89188 214.814 4.69334L203.343 0C203.667 1.2972 203.926 2.45027 204.157 3.48622C205.026 7.33278 205.405 8.72006 207.05 9.96321C207.11 10.0127 207.165 10.0669 207.216 10.1254C207.272 10.1794 207.327 10.2245 207.383 10.2875L207.549 10.5217L207.66 10.6839C207.706 10.774 207.743 10.864 207.78 10.9541C207.817 11.0442 207.826 11.0622 207.845 11.1253C207.878 11.2222 207.903 11.3216 207.919 11.4226V11.5847C207.928 11.6896 207.928 11.7951 207.919 11.9C207.923 11.951 207.923 12.0022 207.919 12.0531C207.91 12.1656 207.891 12.2771 207.863 12.3865V12.5216C207.833 12.6358 207.793 12.7473 207.743 12.8549C207.719 12.8944 207.7 12.9368 207.688 12.981C207.632 13.0801 207.558 13.1792 207.494 13.2783C207.469 13.3123 207.447 13.3485 207.429 13.3864C207.425 13.4011 207.425 13.4166 207.429 13.4314C205.826 15.2943 204.529 17.3881 203.584 19.6382C205.718 18.3263 208.123 17.4896 210.627 17.1879C215.327 16.5576 220.094 17.7442 223.909 20.4939C227.042 22.6379 229.963 27.3673 232.791 31.9525C233.355 32.8534 233.91 33.7542 234.437 34.601C235.278 34.0245 236.128 33.4209 237.025 32.7993C241.47 29.6644 246.064 26.4304 249.807 25.6557C254.422 24.5949 259.279 25.3285 263.348 27.7006C265.533 28.9699 267.402 30.6959 268.82 32.7543C268.867 30.3139 268.517 27.8817 267.785 25.5476C267.79 25.5269 267.79 25.5053 267.785 25.4846C267.785 25.4846 267.785 25.4035 267.785 25.3584C267.757 25.2429 267.739 25.1254 267.729 25.0071V24.872C267.72 24.7551 267.72 24.6376 267.729 24.5207V24.3855C267.748 24.2755 267.776 24.1671 267.813 24.0612L267.868 23.9171L268.007 23.6288L268.099 23.4937C268.164 23.4126 268.219 23.3226 268.293 23.2415L268.413 23.1154L268.644 22.9172C268.696 22.8731 268.752 22.8339 268.811 22.8001L269.06 22.6559L269.273 22.5659C269.341 22.5334 269.413 22.5063 269.486 22.4848H269.532H269.578C271.584 21.9713 272.499 20.8363 274.837 17.6293C275.466 16.7285 276.177 15.8276 277 14.7466L264.513 14.6475C261.307 14.6016 258.182 13.6674 255.501 11.9541Z" fill="url(#paint12_linear_1076_1152)"/>
<defs>
<linearGradient id="paint0_linear_1076_1152" x1="8.73106" y1="30.8949" x2="38.6911" y2="50.6592" gradientUnits="userSpaceOnUse">
<stop offset="0.329745" stop-color="white"/>
<stop offset="1" stop-color="#87A2FC"/>
</linearGradient>
<linearGradient id="paint1_linear_1076_1152" x1="69.1409" y1="30.3878" x2="101.546" y2="55.3244" gradientUnits="userSpaceOnUse">
<stop offset="0.329745" stop-color="white"/>
<stop offset="1" stop-color="#87A2FC"/>
</linearGradient>
<linearGradient id="paint2_linear_1076_1152" x1="132.908" y1="30.3878" x2="165.313" y2="55.3244" gradientUnits="userSpaceOnUse">
<stop offset="0.329745" stop-color="white"/>
<stop offset="1" stop-color="#87A2FC"/>
</linearGradient>
<linearGradient id="paint3_linear_1076_1152" x1="8.73106" y1="100.384" x2="38.688" y2="120.15" gradientUnits="userSpaceOnUse">
<stop offset="0.329745" stop-color="white"/>
<stop offset="1" stop-color="#87A2FC"/>
</linearGradient>
<linearGradient id="paint4_linear_1076_1152" x1="65.31" y1="99.7578" x2="96.8214" y2="122.784" gradientUnits="userSpaceOnUse">
<stop offset="0.329745" stop-color="white"/>
<stop offset="1" stop-color="#87A2FC"/>
</linearGradient>
<linearGradient id="paint5_linear_1076_1152" x1="121.233" y1="99.8673" x2="151.913" y2="119.828" gradientUnits="userSpaceOnUse">
<stop offset="0.329745" stop-color="white"/>
<stop offset="1" stop-color="#87A2FC"/>
</linearGradient>
<linearGradient id="paint6_linear_1076_1152" x1="179.536" y1="100.362" x2="209.01" y2="119.03" gradientUnits="userSpaceOnUse">
<stop offset="0.329745" stop-color="white"/>
<stop offset="1" stop-color="#87A2FC"/>
</linearGradient>
<linearGradient id="paint7_linear_1076_1152" x1="229.575" y1="99.8673" x2="256.512" y2="113.439" gradientUnits="userSpaceOnUse">
<stop offset="0.329745" stop-color="white"/>
<stop offset="1" stop-color="#87A2FC"/>
</linearGradient>
<linearGradient id="paint8_linear_1076_1152" x1="243.154" y1="34.3549" x2="260.042" y2="48.2779" gradientUnits="userSpaceOnUse">
<stop offset="0.329745" stop-color="white"/>
<stop offset="1" stop-color="#87A2FC"/>
</linearGradient>
<linearGradient id="paint9_linear_1076_1152" x1="230.547" y1="42.5727" x2="234.656" y2="44.3614" gradientUnits="userSpaceOnUse">
<stop offset="0.329745" stop-color="white"/>
<stop offset="1" stop-color="#87A2FC"/>
</linearGradient>
<linearGradient id="paint10_linear_1076_1152" x1="210.354" y1="51.0373" x2="222.684" y2="75.493" gradientUnits="userSpaceOnUse">
<stop offset="0.329745" stop-color="white"/>
<stop offset="1" stop-color="#87A2FC"/>
</linearGradient>
<linearGradient id="paint11_linear_1076_1152" x1="204.816" y1="26.1722" x2="221.847" y2="40.7236" gradientUnits="userSpaceOnUse">
<stop offset="0.329745" stop-color="white"/>
<stop offset="1" stop-color="#87A2FC"/>
</linearGradient>
<linearGradient id="paint12_linear_1076_1152" x1="217.437" y1="5.36912" x2="236.993" y2="36.5919" gradientUnits="userSpaceOnUse">
<stop offset="0.329745" stop-color="white"/>
<stop offset="1" stop-color="#87A2FC"/>
</linearGradient>
</defs>
</svg>
