<svg width="1081" height="145" viewBox="0 0 1081 145" fill="none" xmlns="http://www.w3.org/2000/svg">
<path d="M0 29.532C0.0222194 28.8271 0.323133 28.1567 0.841804 27.6565C1.36048 27.1563 2.05814 26.8637 2.79351 26.8379H20.3246C21.0702 26.8379 21.7853 27.1217 22.3126 27.627C22.8398 28.1322 23.136 28.8175 23.136 29.532V65.1042H65.2715V29.532C65.2691 29.1804 65.3391 28.8319 65.4773 28.5062C65.6155 28.1806 65.8193 27.8842 66.077 27.6341C66.3348 27.3839 66.6414 27.1848 66.9794 27.0482C67.3175 26.9116 67.6803 26.8401 68.0471 26.8379H85.5961C86.3332 26.8634 87.0329 27.1555 87.5545 27.6553C88.0761 28.1551 88.3809 28.8256 88.4075 29.532V122.984C88.3809 123.69 88.0761 124.361 87.5545 124.861C87.0329 125.361 86.3332 125.653 85.5961 125.678H68.0471C67.6788 125.678 67.314 125.608 66.9739 125.473C66.6338 125.337 66.3251 125.138 66.0654 124.888C65.8058 124.638 65.6004 124.34 65.4611 124.014C65.3218 123.687 65.2512 123.337 65.2536 122.984V85.7988H23.136V122.984C23.136 123.699 22.8398 124.384 22.3126 124.889C21.7853 125.394 21.0702 125.678 20.3246 125.678H2.79351C2.05814 125.652 1.36048 125.36 0.841804 124.859C0.323133 124.359 0.0222194 123.689 0 122.984L0 29.532Z" fill="url(#paint0_linear_829_518)"/>
<path d="M166.537 25.4309C177.028 25.4004 187.293 28.3519 196.033 33.9123C204.774 39.4726 211.597 47.3919 215.641 56.6686C219.684 65.9453 220.766 76.1627 218.749 86.0286C216.732 95.8945 211.708 104.966 204.311 112.095C196.913 119.224 187.476 124.091 177.192 126.08C166.909 128.069 156.24 127.092 146.536 123.27C136.832 119.449 128.529 112.956 122.677 104.612C116.824 96.2682 113.685 86.4487 113.657 76.3954C113.626 69.719 114.971 63.1024 117.614 56.9249C120.256 50.7473 124.146 45.1303 129.058 40.3958C133.97 35.6613 139.81 31.9023 146.241 29.3343C152.672 26.7664 159.569 25.4399 166.537 25.4309ZM166.537 104.503C172.377 104.523 178.092 102.881 182.956 99.7834C187.82 96.6861 191.615 92.2739 193.858 87.1066C196.101 81.9393 196.692 76.25 195.555 70.7605C194.418 65.271 191.605 60.2288 187.473 56.2739C183.341 52.319 178.076 49.6295 172.346 48.5469C166.616 47.4642 160.679 48.0372 155.29 50.193C149.9 52.3488 145.3 55.9903 142.074 60.6554C138.848 65.3205 137.14 70.7989 137.169 76.3954C137.225 83.8393 140.338 90.9624 145.835 96.223C151.331 101.483 158.768 104.458 166.537 104.503Z" fill="url(#paint1_linear_829_518)"/>
<path d="M290.095 25.4308C300.586 25.4037 310.849 28.3582 319.587 33.9206C328.326 39.4829 335.146 47.4035 339.187 56.6805C343.228 65.9575 344.307 76.1744 342.288 86.0391C340.269 95.9039 335.243 104.973 327.845 112.101C320.447 119.228 311.01 124.094 300.727 126.081C290.443 128.069 279.776 127.09 270.073 123.269C260.37 119.447 252.068 112.953 246.216 104.61C240.365 96.2668 237.226 86.448 237.198 76.3953C237.167 69.7175 238.512 63.0995 241.156 56.9208C243.8 50.7422 247.691 45.1244 252.605 40.3897C257.52 35.6549 263.361 31.8963 269.794 29.3293C276.228 26.7624 283.127 25.4376 290.095 25.4308ZM290.095 104.503C295.937 104.53 301.656 102.893 306.525 99.8001C311.394 96.707 315.194 92.2972 317.442 87.1305C319.691 81.9638 320.287 76.2734 319.154 70.7817C318.021 65.2899 315.211 60.2446 311.08 56.2862C306.95 52.3278 301.685 49.6349 295.954 48.5495C290.223 47.464 284.284 48.0349 278.893 50.1897C273.501 52.3445 268.899 55.986 265.671 60.6518C262.443 65.3177 260.735 70.7974 260.764 76.3953C260.815 83.8347 263.922 90.9553 269.412 96.2158C274.901 101.476 282.332 104.454 290.095 104.503Z" fill="url(#paint2_linear_829_518)"/>
<path d="M580.066 30.2356C580.088 29.5308 580.389 28.8604 580.908 28.3601C581.426 27.8599 582.124 27.5673 582.859 27.5415H600.391C600.759 27.5415 601.124 27.6113 601.464 27.7469C601.804 27.8825 602.113 28.0812 602.372 28.3316C602.632 28.582 602.837 28.8791 602.977 29.2059C603.116 29.5327 603.186 29.8826 603.184 30.2356V65.8078H645.32V30.2356C645.32 29.5211 645.616 28.8358 646.143 28.3306C646.67 27.8253 647.385 27.5415 648.131 27.5415H665.662C666.397 27.5673 667.095 27.8599 667.614 28.3601C668.132 28.8604 668.433 29.5308 668.456 30.2356V123.688C668.433 124.392 668.132 125.063 667.614 125.563C667.095 126.063 666.397 126.356 665.662 126.382H648.131C647.385 126.382 646.67 126.098 646.143 125.593C645.616 125.087 645.32 124.402 645.32 123.688V86.5711H603.184V123.688C603.186 124.041 603.116 124.391 602.977 124.717C602.837 125.044 602.632 125.341 602.372 125.592C602.113 125.842 601.804 126.041 601.464 126.176C601.124 126.312 600.759 126.382 600.391 126.382H582.859C582.124 126.356 581.426 126.063 580.908 125.563C580.389 125.063 580.088 124.392 580.066 123.688V30.2356Z" fill="url(#paint3_linear_829_518)"/>
<path d="M687.902 122.71L734.031 27.6963C734.265 27.2483 734.618 26.8678 735.056 26.5934C735.493 26.3191 735.998 26.1608 736.52 26.1348H738.007C738.53 26.163 739.037 26.322 739.477 26.5959C739.917 26.8699 740.274 27.2492 740.514 27.6963L786.624 122.71C786.844 123.106 786.948 123.551 786.927 123.999C786.905 124.446 786.759 124.88 786.503 125.255C786.247 125.631 785.89 125.933 785.471 126.131C785.051 126.329 784.584 126.416 784.117 126.382H767.768C765.118 126.382 763.936 125.524 762.611 122.847L757.239 111.693H717.234L711.862 122.984C711.457 124.025 710.719 124.916 709.755 125.532C708.791 126.148 707.648 126.458 706.49 126.416H690.284C689.823 126.431 689.366 126.329 688.96 126.12C688.553 125.911 688.212 125.603 687.97 125.226C687.728 124.85 687.594 124.419 687.582 123.977C687.571 123.535 687.681 123.098 687.902 122.71ZM748.518 92.4916L737.326 69.2058H737.165L726.063 92.4916H748.518Z" fill="url(#paint4_linear_829_518)"/>
<path d="M850.857 26.1345C857.412 25.9496 863.939 27.0149 870.059 29.2685C876.18 31.522 881.772 34.9189 886.511 39.2617C886.817 39.4969 887.067 39.7925 887.244 40.1283C887.421 40.4642 887.52 40.8325 887.535 41.2084C887.55 41.5843 887.481 41.9589 887.332 42.307C887.183 42.655 886.958 42.9683 886.672 43.2256L875.175 54.654C874.935 54.8896 874.648 55.0768 874.332 55.2046C874.015 55.3323 873.675 55.3982 873.331 55.3982C872.987 55.3982 872.647 55.3323 872.33 55.2046C872.014 55.0768 871.727 54.8896 871.487 54.654C865.994 50.0206 858.927 47.4644 851.61 47.4641C834.956 47.4641 822.725 60.7286 822.725 76.5327C822.725 92.3369 835.099 105.207 851.753 105.207C858.949 105.167 865.909 102.742 871.451 98.3428C871.996 97.9114 872.687 97.687 873.394 97.7123C874.101 97.7377 874.773 98.0109 875.283 98.48L886.779 110.2C887.255 110.738 887.503 111.427 887.477 112.131C887.45 112.836 887.15 113.506 886.636 114.01C877.058 122.939 864.183 127.874 850.822 127.737C843.856 127.737 836.959 126.423 830.524 123.868C824.089 121.314 818.241 117.57 813.316 112.851C808.391 108.131 804.484 102.528 801.818 96.361C799.153 90.1943 797.781 83.585 797.781 76.9102C797.781 70.2355 799.153 63.6261 801.818 57.4595C804.484 51.2929 808.391 45.6897 813.316 40.97C818.241 36.2502 824.089 32.5063 830.524 29.952C836.959 27.3977 843.856 26.083 850.822 26.083L850.857 26.1345Z" fill="url(#paint5_linear_829_518)"/>
<path d="M911.724 30.888C911.724 29.9778 912.101 29.1049 912.773 28.4613C913.444 27.8176 914.355 27.4561 915.305 27.4561H932.55C933.5 27.4561 934.411 27.8176 935.082 28.4613C935.754 29.1049 936.131 29.9778 936.131 30.888V68.0732L968.776 28.9661C969.491 28.1762 970.486 27.6687 971.569 27.5419H990.139C990.765 27.5582 991.375 27.7389 991.901 28.0643C992.427 28.3898 992.85 28.8474 993.123 29.3873C993.397 29.9272 993.51 30.5287 993.451 31.1262C993.392 31.7237 993.163 32.2942 992.789 32.7756L958.282 74.1478L995.887 121.011C996.225 121.507 996.419 122.08 996.449 122.671C996.478 123.262 996.343 123.85 996.057 124.375C995.77 124.899 995.343 125.341 994.819 125.655C994.295 125.968 993.693 126.142 993.076 126.159H972.716C971.734 126.154 970.789 125.799 970.065 125.164L936.042 80.8229V122.984C936.042 123.895 935.664 124.768 934.993 125.411C934.321 126.055 933.41 126.416 932.46 126.416H915.216C914.266 126.416 913.355 126.055 912.683 125.411C912.012 124.768 911.634 123.895 911.634 122.984L911.724 30.888Z" fill="url(#paint6_linear_829_518)"/>
<path d="M1012.34 112.963L1019.27 101.243C1019.86 100.536 1020.69 100.059 1021.61 99.9039C1022.54 99.7488 1023.49 99.9262 1024.29 100.402C1024.88 100.677 1035.48 108.158 1045.2 108.158C1051.09 108.158 1055.37 104.641 1055.37 99.6987C1055.37 93.7614 1050.22 89.2484 1040.19 85.4389C1027.53 80.6342 1011.54 71.1791 1011.54 54.2253C1011.54 40.2573 1022.89 26.1348 1045.56 26.1348C1060.89 26.1348 1072.67 33.6164 1077.1 36.7223C1078.89 37.7176 1078.56 40.2573 1077.97 41.2525L1070.45 52.1147C1069.43 53.6762 1066.78 54.946 1065.46 53.9507C1064.11 53.2472 1053.37 45.4738 1044.38 45.4738C1039.01 45.4738 1035.1 48.9058 1035.1 52.6809C1035.1 57.8289 1039.53 61.8614 1051.22 66.4087C1062.91 70.9561 1080.98 79.3987 1080.98 98.6004C1080.98 113.135 1067.87 127.772 1046.22 127.772C1027.06 127.772 1016.46 120.153 1013.08 116.893C1011.61 115.503 1011.18 114.971 1012.34 112.963Z" fill="url(#paint7_linear_829_518)"/>
<path d="M522.136 69.4115C522.136 69.257 517.856 54.6712 504.766 50.347C498.611 48.2613 491.855 48.5193 485.892 51.0677H485.713L485.552 51.1535C480.681 53.0754 473.572 60.5056 467.287 67.0434C465.836 68.5535 464.439 70.0121 463.061 71.4192C464.833 73.1753 466.501 75.0257 468.057 76.9618C468.853 77.9372 469.51 79.0107 470.009 80.1535C470.577 81.5671 470.88 83.0659 470.904 84.5807C473.048 89.4237 476.604 93.5713 481.146 96.5266C485.688 99.4819 491.023 101.119 496.511 101.243H496.636C502.027 101.09 507.263 99.4817 511.742 96.604C516.221 93.7262 519.762 89.6956 521.957 84.9754C522.23 84.4093 522.627 83.9061 523.121 83.4996C523.481 78.8175 523.155 74.1102 522.154 69.5144C522.151 69.4797 522.145 69.4453 522.136 69.4115ZM507.112 78.8322C505.846 79.0504 504.541 78.7872 503.475 78.0983C502.408 77.4094 501.664 76.3492 501.4 75.1428C501.192 74.2135 500.634 73.3902 499.832 72.8306C499.03 72.271 498.041 72.0145 497.055 72.1101C496.068 72.2057 495.152 72.6468 494.484 73.3488C493.815 74.0509 493.44 74.9646 493.431 75.915C493.431 77.1666 492.912 78.3668 491.989 79.2518C491.065 80.1368 489.813 80.634 488.507 80.634C487.201 80.634 485.948 80.1368 485.024 79.2518C484.101 78.3668 483.582 77.1666 483.582 75.915C483.589 72.6243 484.87 69.4531 487.175 67.0144C489.481 64.5757 492.648 63.0428 496.065 62.712C499.482 62.3812 502.905 63.276 505.673 65.2234C508.441 67.1708 510.358 70.0325 511.052 73.2553C511.179 73.8696 511.178 74.502 511.048 75.1159C510.918 75.7298 510.663 76.313 510.297 76.8317C509.93 77.3503 509.46 77.7942 508.913 78.1376C508.367 78.481 507.755 78.7171 507.112 78.8322Z" fill="url(#paint8_linear_829_518)"/>
<path d="M455.844 95.2885C459.425 91.0672 460.625 88.1501 460.983 86.2625C460.428 84.8414 459.956 83.3921 459.569 81.9211C458.816 81.0288 457.67 79.7589 455.844 77.9229C453.91 79.6494 452.214 81.604 450.794 83.74C450.544 84.5486 450.513 85.405 450.704 86.2282C451.063 88.1158 452.298 91.0329 455.844 95.2885Z" fill="url(#paint9_linear_829_518)"/>
<path d="M496.511 110.664C490.791 110.595 485.161 109.284 480.047 106.829C474.932 104.374 470.465 100.839 466.982 96.4897C464.796 99.7883 462.264 102.864 459.425 105.67L455.844 109.291L452.262 105.67C449.591 103.001 447.193 100.094 445.1 96.9874C441.632 101.18 437.24 104.586 432.236 106.959C427.233 109.333 421.743 110.616 416.162 110.715H416C407.246 110.65 398.8 107.61 392.166 102.135C392.47 104.023 392.757 106.082 393.026 108.347C400.826 116.874 410.433 123.711 421.205 128.404C431.978 133.096 443.67 135.537 455.504 135.563H455.844H456.202C468.045 135.551 479.749 133.12 490.535 128.434C501.32 123.747 510.94 116.911 518.752 108.381C518.984 106.357 519.235 104.503 519.522 102.787C513.048 107.807 504.998 110.587 496.672 110.681L496.511 110.664Z" fill="url(#paint10_linear_829_518)"/>
<path d="M415.929 101.243H416.054C421.216 101.102 426.24 99.6215 430.592 96.9591C434.944 94.2967 438.461 90.5523 440.766 86.1252C440.604 84.1492 440.898 82.1633 441.626 80.308C442.235 78.8323 443.596 76.6187 448.645 71.5051C447.267 70.098 445.87 68.6394 444.419 67.1293C438.134 60.5743 431.025 53.1613 426.154 51.2394C426.095 51.2214 426.04 51.1922 425.993 51.1536H425.814C419.845 48.6059 413.083 48.3479 406.922 50.4329C393.832 54.7571 389.606 69.3086 389.57 69.4974C388.938 72.7082 388.567 75.9612 388.459 79.227C391.557 92.011 403.036 101.243 415.929 101.243ZM400.726 73.2725C401.401 70.031 403.312 67.1466 406.086 65.1816C408.86 63.2167 412.298 62.3121 415.73 62.6442C419.162 62.9763 422.342 64.5213 424.65 66.9779C426.958 69.4346 428.228 72.6268 428.213 75.9323C428.213 77.1838 427.694 78.3841 426.771 79.2691C425.847 80.1541 424.595 80.6512 423.289 80.6512C421.983 80.6512 420.73 80.1541 419.807 79.2691C418.883 78.3841 418.364 77.1838 418.364 75.9323C418.377 74.967 418.012 74.0322 417.341 73.312C416.67 72.5919 415.742 72.1387 414.74 72.0418C413.738 71.9449 412.734 72.2113 411.926 72.7885C411.119 73.3657 410.566 74.2118 410.378 75.1601C410.248 75.7674 409.996 76.3444 409.634 76.858C409.272 77.3717 408.807 77.8119 408.268 78.1537C407.728 78.4955 407.124 78.7321 406.489 78.85C405.854 78.9679 405.201 78.9648 404.567 78.8409C403.287 78.5906 402.163 77.8633 401.443 76.819C401.086 76.3019 400.839 75.7226 400.716 75.1141C400.593 74.5056 400.597 73.8798 400.726 73.2725Z" fill="url(#paint11_linear_829_518)"/>
<path d="M486.805 15.015C466.898 7.55619 444.79 7.55619 424.883 15.015C419.097 17.1832 412.787 17.7307 406.689 16.5937L382.962 12.115C384.09 14.4144 385.057 16.4736 385.899 18.3097C389.068 25.1736 390.358 27.6274 393.957 29.3263H394.046C394.178 29.3963 394.304 29.4766 394.422 29.5665L394.799 29.8067L395.21 30.1843L395.479 30.4417L395.819 30.905C395.891 30.9982 395.957 31.0956 396.016 31.1967C396.11 31.3692 396.194 31.5468 396.267 31.7286C396.267 31.8316 396.267 31.9174 396.392 32.0203C396.457 32.2107 396.505 32.4058 396.536 32.6038C396.544 32.7008 396.544 32.7984 396.536 32.8955C396.553 33.1068 396.553 33.3191 396.536 33.5304V33.805C396.517 34.0246 396.481 34.2426 396.428 34.457V34.7144C396.363 34.9324 396.279 35.1448 396.177 35.3493C396.177 35.3493 396.177 35.4866 396.088 35.5724V35.6754C393.786 39.7507 392.161 44.1448 391.271 48.6996C394.785 45.3844 399.024 42.8583 403.68 41.3038C412.348 38.3794 421.865 38.8166 430.201 42.5221C437.006 45.3706 444.527 53.1097 451.69 60.6085C453.122 62.1186 454.519 63.56 455.862 64.9328C457.223 63.56 458.602 62.1186 460.052 60.6085C467.215 53.1097 474.664 45.3706 481.541 42.5221C489.872 38.8248 499.38 38.3877 508.043 41.3038C512.708 42.854 516.953 45.3805 520.471 48.6996C519.567 44.146 517.936 39.753 515.636 35.6754C515.64 35.6354 515.64 35.5952 515.636 35.5553C515.636 35.4695 515.636 35.4008 515.546 35.3322C515.45 35.1272 515.372 34.9148 515.314 34.6973C515.305 34.6117 515.305 34.5255 515.314 34.4399C515.26 34.2255 515.224 34.0075 515.206 33.7878C515.197 33.6965 515.197 33.6046 515.206 33.5132C515.206 33.3073 515.206 33.0843 515.206 32.8783V32.5866C515.206 32.3979 515.296 32.1919 515.367 32.0032L515.475 31.7115C515.554 31.5294 515.643 31.3518 515.743 31.1795L515.922 30.8878C516.03 30.7253 516.15 30.5705 516.281 30.4245C516.281 30.3387 516.46 30.2529 516.549 30.1671C516.678 30.0326 516.815 29.9065 516.961 29.7896L517.319 29.5493L517.695 29.3091H517.785C521.366 27.5931 522.673 25.1564 525.843 18.3097C526.702 16.4564 527.634 14.3973 528.798 12.0979L504.981 16.5937C498.889 17.7236 492.587 17.1762 486.805 15.015Z" fill="url(#paint12_linear_829_518)"/>
<defs>
<linearGradient id="paint0_linear_829_518" x1="45.5983" y1="-6.85121" x2="99.1807" y2="1.315" gradientUnits="userSpaceOnUse">
<stop offset="0.201923" stop-color="white"/>
<stop offset="1" stop-color="#87A2FC"/>
</linearGradient>
<linearGradient id="paint1_linear_829_518" x1="168.371" y1="-9.21765" x2="232.143" y2="2.12169" gradientUnits="userSpaceOnUse">
<stop offset="0.201923" stop-color="white"/>
<stop offset="1" stop-color="#87A2FC"/>
</linearGradient>
<linearGradient id="paint2_linear_829_518" x1="291.912" y1="-9.21765" x2="355.684" y2="2.12169" gradientUnits="userSpaceOnUse">
<stop offset="0.201923" stop-color="white"/>
<stop offset="1" stop-color="#87A2FC"/>
</linearGradient>
<linearGradient id="paint3_linear_829_518" x1="625.655" y1="-6.1476" x2="679.227" y2="2.01538" gradientUnits="userSpaceOnUse">
<stop offset="0.201923" stop-color="white"/>
<stop offset="1" stop-color="#87A2FC"/>
</linearGradient>
<linearGradient id="paint4_linear_829_518" x1="738.823" y1="-8.04689" x2="798.727" y2="2.06484" gradientUnits="userSpaceOnUse">
<stop offset="0.201923" stop-color="white"/>
<stop offset="1" stop-color="#87A2FC"/>
</linearGradient>
<linearGradient id="paint5_linear_829_518" x1="844.075" y1="-8.56624" x2="898.506" y2="-0.377413" gradientUnits="userSpaceOnUse">
<stop offset="0.201923" stop-color="white"/>
<stop offset="1" stop-color="#87A2FC"/>
</linearGradient>
<linearGradient id="paint6_linear_829_518" x1="955.381" y1="-6.27399" x2="1006.88" y2="1.24746" gradientUnits="userSpaceOnUse">
<stop offset="0.201923" stop-color="white"/>
<stop offset="1" stop-color="#87A2FC"/>
</linearGradient>
<linearGradient id="paint7_linear_829_518" x1="1047.36" y1="-8.50769" x2="1089.85" y2="-3.561" gradientUnits="userSpaceOnUse">
<stop offset="0.201923" stop-color="white"/>
<stop offset="1" stop-color="#87A2FC"/>
</linearGradient>
<linearGradient id="paint8_linear_829_518" x1="494.111" y1="31.1266" x2="530.063" y2="38.1789" gradientUnits="userSpaceOnUse">
<stop offset="0.201923" stop-color="white"/>
<stop offset="1" stop-color="#87A2FC"/>
</linearGradient>
<linearGradient id="paint9_linear_829_518" x1="455.946" y1="72.0039" x2="462.331" y2="72.6555" gradientUnits="userSpaceOnUse">
<stop offset="0.201923" stop-color="white"/>
<stop offset="1" stop-color="#87A2FC"/>
</linearGradient>
<linearGradient id="paint10_linear_829_518" x1="457.853" y1="83.172" x2="518.215" y2="116.696" gradientUnits="userSpaceOnUse">
<stop offset="0.201923" stop-color="white"/>
<stop offset="1" stop-color="#87A2FC"/>
</linearGradient>
<linearGradient id="paint11_linear_829_518" x1="419.502" y1="31.2424" x2="455.44" y2="38.3019" gradientUnits="userSpaceOnUse">
<stop offset="0.201923" stop-color="white"/>
<stop offset="1" stop-color="#87A2FC"/>
</linearGradient>
<linearGradient id="paint12_linear_829_518" x1="458.18" y1="-9.49999" x2="533.525" y2="24.2266" gradientUnits="userSpaceOnUse">
<stop offset="0.201923" stop-color="white"/>
<stop offset="1" stop-color="#87A2FC"/>
</linearGradient>
</defs>
</svg>
