<svg width="30" height="30" viewBox="0 0 30 30" fill="none" xmlns="http://www.w3.org/2000/svg">
<path fill-rule="evenodd" clip-rule="evenodd" d="M10.1502 3.65233C10.0662 3.63909 9.98079 3.63707 9.89623 3.64633C8.21423 3.82833 5.65423 4.73633 4.14223 5.55633C4.04237 5.6108 3.95298 5.68258 3.87823 5.76833C3.25023 6.48633 2.68023 7.65633 2.23423 8.76433C1.77423 9.90033 1.39423 11.1003 1.18023 11.9683C0.472231 14.7883 0.0862308 18.1743 0.0342308 21.3863C0.0325765 21.5466 0.0710807 21.7048 0.146231 21.8463C0.746231 22.9923 2.04023 24.0543 3.33623 24.8303C4.64623 25.6163 6.17623 26.2363 7.40823 26.3563C7.55584 26.3704 7.70471 26.3501 7.84316 26.297C7.98161 26.2439 8.10588 26.1595 8.20623 26.0503C8.51423 25.7163 9.03823 24.9363 9.43423 24.3303C9.61423 24.0543 9.78423 23.7903 9.91623 23.5803C11.2402 23.8203 12.9002 23.9603 15.0002 23.9603C17.0962 23.9603 18.7562 23.8203 20.0802 23.5803C20.2122 23.7923 20.3802 24.0543 20.5602 24.3283C20.9562 24.9363 21.4802 25.7163 21.7902 26.0503C21.8906 26.1595 22.0148 26.2439 22.1533 26.297C22.2918 26.3501 22.4406 26.3704 22.5882 26.3563C23.8202 26.2363 25.3482 25.6163 26.6582 24.8303C27.9542 24.0543 29.2482 22.9923 29.8502 21.8463C29.9247 21.7046 29.9625 21.5464 29.9602 21.3863C29.9102 18.1743 29.5222 14.7863 28.8182 11.9663C28.5353 10.8772 28.1819 9.80761 27.7602 8.76433C27.3142 7.65633 26.7442 6.48433 26.1182 5.76833C26.0429 5.6824 25.9528 5.6106 25.8522 5.55633C24.3422 4.73633 21.7822 3.82833 20.0982 3.64633C20.0143 3.63725 19.9296 3.63927 19.8462 3.65233C19.4693 3.72487 19.1157 3.88826 18.8162 4.12833C18.1454 4.6684 17.6029 5.35087 17.2282 6.12633C16.487 6.06819 15.7437 6.0395 15.0002 6.04033C14.1962 6.04033 13.4522 6.07033 12.7662 6.12433C12.3913 5.34959 11.8489 4.66783 11.1782 4.12833C10.8793 3.88856 10.5265 3.72518 10.1502 3.65233ZM22.0362 23.0763C22.3177 23.5098 22.6064 23.9385 22.9022 24.3623C23.6942 24.1823 24.7042 23.7623 25.6722 23.1823C26.7582 22.5323 27.6202 21.7823 28.0362 21.1483C27.9702 18.1363 27.5982 15.0083 26.9562 12.4323C26.6947 11.429 26.3687 10.4436 25.9802 9.48233C25.5802 8.48633 25.1502 7.64233 24.7762 7.15833C23.4762 6.48433 21.4262 5.77233 20.0902 5.57833C20.05 5.60272 20.0113 5.62943 19.9742 5.65833C19.8085 5.78871 19.657 5.93619 19.5222 6.09833C19.4434 6.19222 19.368 6.28895 19.2962 6.38833C19.9062 6.50033 20.4502 6.63433 20.9322 6.78233C22.3002 7.20233 23.2862 7.78233 23.7682 8.42433C23.921 8.62802 23.9866 8.88405 23.9506 9.1361C23.9146 9.38815 23.7799 9.61557 23.5762 9.76833C23.4754 9.84397 23.3606 9.89901 23.2385 9.9303C23.1164 9.96159 22.9893 9.96851 22.8645 9.95068C22.6124 9.91468 22.385 9.78002 22.2322 9.57633C22.1142 9.42033 21.6002 8.99633 20.3682 8.61633C19.1782 8.25233 17.4282 7.96033 15.0002 7.96033C12.5722 7.96033 10.8202 8.25233 9.63223 8.61833C8.40023 8.99833 7.88623 9.41833 7.76823 9.57633C7.69259 9.67719 7.59782 9.76216 7.48934 9.82639C7.38087 9.89062 7.2608 9.93286 7.136 9.95068C6.88395 9.98669 6.62792 9.9211 6.42423 9.76833C6.32338 9.69269 6.23841 9.59793 6.17418 9.48945C6.10994 9.38097 6.06771 9.2609 6.04988 9.1361C6.01387 8.88405 6.07947 8.62802 6.23223 8.42433C6.71423 7.78033 7.70023 7.20433 9.06823 6.78433C9.54823 6.63433 10.0922 6.50233 10.7002 6.39033C10.6283 6.28986 10.5523 6.19244 10.4722 6.09833C10.3381 5.93629 10.1872 5.78882 10.0222 5.65833C9.98451 5.62937 9.9451 5.60265 9.90423 5.57833C8.57023 5.77233 6.52023 6.48433 5.22023 7.15833C4.84423 7.64433 4.41623 8.48633 4.01423 9.48233C3.58823 10.5423 3.23423 11.6563 3.04023 12.4323C2.39623 15.0083 2.02423 18.1363 1.96023 21.1483C2.37623 21.7843 3.23623 22.5323 4.32223 23.1843C5.29223 23.7643 6.30023 24.1843 7.09423 24.3623C7.39304 23.9406 7.68179 23.5118 7.96023 23.0763C6.39023 22.5183 5.54823 21.7523 5.00023 20.9323C4.93037 20.8273 4.88188 20.7095 4.85754 20.5857C4.8332 20.4619 4.83348 20.3345 4.85836 20.2108C4.88325 20.0871 4.93226 19.9696 5.00258 19.8648C5.07291 19.7601 5.16317 19.6702 5.26823 19.6003C5.37329 19.5305 5.49108 19.482 5.61487 19.4576C5.73867 19.4333 5.86605 19.4336 5.98974 19.4585C6.11342 19.4834 6.231 19.5324 6.33575 19.6027C6.4405 19.673 6.53037 19.7633 6.60023 19.8683C7.12023 20.6523 8.48823 22.0403 15.0002 22.0403C21.5142 22.0403 22.8802 20.6523 23.4002 19.8683C23.5413 19.6562 23.7609 19.5087 24.0107 19.4585C24.2605 19.4082 24.5201 19.4592 24.7322 19.6003C24.9444 19.7414 25.0918 19.961 25.1421 20.2108C25.1924 20.4606 25.1413 20.7202 25.0002 20.9323C24.4522 21.7523 23.6082 22.5203 22.0362 23.0763ZM8.16023 14.0243C8.64823 13.5003 9.31023 13.2043 10.0002 13.2003C10.6902 13.2043 11.3522 13.5003 11.8402 14.0243C12.3262 14.5503 12.6002 15.2603 12.6002 16.0003C12.6002 16.7403 12.3262 17.4503 11.8402 17.9763C11.3522 18.5003 10.6902 18.7963 10.0002 18.8003C9.65339 18.7967 9.31102 18.7216 8.99446 18.5799C8.6779 18.4381 8.39392 18.2326 8.16023 17.9763C7.66744 17.4367 7.39609 16.7311 7.40023 16.0003C7.40023 15.2603 7.67423 14.5503 8.16023 14.0243ZM20.0002 13.2003C19.3102 13.2043 18.6482 13.5003 18.1602 14.0243C17.6742 14.5503 17.4002 15.2603 17.4002 16.0003C17.4002 16.7403 17.6742 17.4503 18.1602 17.9763C18.6482 18.5003 19.3102 18.7963 20.0002 18.8003C20.6902 18.7963 21.3522 18.5003 21.8402 17.9763C22.3262 17.4503 22.6002 16.7403 22.6002 16.0003C22.6002 15.2603 22.3262 14.5503 21.8402 14.0243C21.6065 13.768 21.3226 13.5626 21.006 13.4208C20.6894 13.279 20.3471 13.204 20.0002 13.2003Z" fill="white"/>
</svg>
