<svg width="53" height="46" viewBox="0 0 53 46" fill="none" xmlns="http://www.w3.org/2000/svg">
<path d="M50.5793 21.8767C50.5793 21.8203 49.0239 16.5013 44.2667 14.9244C42.0297 14.1638 39.5744 14.2579 37.4074 15.1872H37.3423L37.2837 15.2185C35.5136 15.9194 32.93 18.6289 30.6457 21.0131C30.1186 21.5638 29.611 22.0957 29.1099 22.6088C29.7541 23.2492 30.3603 23.924 30.9256 24.63C31.2151 24.9857 31.4537 25.3772 31.6349 25.7939C31.8415 26.3095 31.9516 26.856 31.9603 27.4084C32.7396 29.1745 34.0319 30.687 35.6825 31.7647C37.3331 32.8424 39.2719 33.4396 41.2665 33.4846H41.3121C43.2711 33.4287 45.1739 32.8424 46.8018 31.7929C48.4296 30.7435 49.7164 29.2737 50.5142 27.5523C50.6136 27.3459 50.7578 27.1624 50.9372 27.0142C51.0679 25.3068 50.9496 23.5901 50.5858 21.9142C50.5846 21.9016 50.5824 21.889 50.5793 21.8767ZM45.1192 25.3121C44.6591 25.3917 44.1849 25.2957 43.7973 25.0445C43.4096 24.7933 43.1391 24.4066 43.0432 23.9667C42.9677 23.6278 42.7648 23.3276 42.4735 23.1235C42.1821 22.9194 41.8227 22.8259 41.4641 22.8608C41.1054 22.8956 40.7728 23.0565 40.5298 23.3125C40.2868 23.5685 40.1506 23.9017 40.1472 24.2483C40.1472 24.7047 39.9586 25.1424 39.623 25.4651C39.2874 25.7879 38.8322 25.9692 38.3575 25.9692C37.8829 25.9692 37.4277 25.7879 37.0921 25.4651C36.7564 25.1424 36.5679 24.7047 36.5679 24.2483C36.5705 23.0483 37.0358 21.8918 37.8737 21.0025C38.7117 20.1132 39.8627 19.5542 41.1044 19.4336C42.3461 19.3129 43.5902 19.6392 44.5962 20.3494C45.6022 21.0595 46.2987 22.1031 46.5509 23.2784C46.5972 23.5024 46.5967 23.733 46.5496 23.9569C46.5025 24.1808 46.4097 24.3934 46.2765 24.5826C46.1434 24.7717 45.9725 24.9336 45.7739 25.0588C45.5752 25.184 45.3527 25.2701 45.1192 25.3121Z" fill="#E5EEFF"/>
<path d="M26.487 31.3132C27.7886 29.7738 28.2246 28.71 28.3547 28.0217C28.1532 27.5035 27.9816 26.9749 27.8406 26.4385C27.5673 26.1131 27.1508 25.65 26.487 24.9805C25.7844 25.6101 25.1677 26.3229 24.6518 27.1018C24.5609 27.3967 24.5497 27.709 24.6192 28.0092C24.7494 28.6975 25.1984 29.7613 26.487 31.3132Z" fill="#E5EEFF"/>
<path d="M41.266 36.9203C39.1872 36.8952 37.1414 36.4171 35.2825 35.5218C33.4237 34.6264 31.8003 33.3373 30.5346 31.7515C29.74 32.9543 28.8197 34.0761 27.7882 35.0993L26.4867 36.4197L25.1851 35.0993C24.2144 34.1261 23.3427 33.0658 22.582 31.9329C21.3219 33.462 19.7255 34.7039 17.9072 35.5694C16.0889 36.435 14.0938 36.9027 12.0653 36.9391H12.0067C8.82511 36.9155 5.75555 35.8067 3.34473 33.8102C3.45536 34.4986 3.55948 35.2495 3.6571 36.0755C6.49209 39.185 9.98325 41.6783 13.8983 43.3895C17.8133 45.1008 22.0625 45.9907 26.363 46.0001H26.4867H26.6168C30.9208 45.9958 35.1743 45.1096 39.0941 43.4004C43.0138 41.6912 46.5097 39.1984 49.3488 36.088C49.4334 35.3496 49.5245 34.6738 49.6286 34.048C47.2761 35.8784 44.3505 36.8925 41.3246 36.9265L41.266 36.9203Z" fill="#E5EEFF"/>
<path d="M11.9806 33.4849H12.0262C13.9019 33.4335 15.7279 32.8936 17.3095 31.9227C18.8912 30.9518 20.1691 29.5863 21.007 27.9719C20.9482 27.2513 21.0548 26.5271 21.3194 25.8505C21.5407 25.3124 22.0353 24.5051 23.8705 22.6403C23.3694 22.1272 22.8618 21.5953 22.3346 21.0446C20.0504 18.6542 17.4667 15.9509 15.6966 15.2501C15.6751 15.2435 15.6552 15.2329 15.638 15.2188H15.573C13.4036 14.2897 10.9464 14.1956 8.70717 14.956C3.94992 16.5329 2.41407 21.8394 2.40105 21.9082C2.1715 23.0791 2.0366 24.2654 1.99756 25.4563C3.12342 30.1182 7.29496 33.4849 11.9806 33.4849ZM6.45545 23.2849C6.70084 22.1028 7.39526 21.0509 8.40335 20.3344C9.41143 19.6178 10.6609 19.288 11.9082 19.4091C13.1555 19.5302 14.3111 20.0936 15.1499 20.9894C15.9886 21.8853 16.4503 23.0494 16.445 24.2548C16.445 24.7112 16.2565 25.1489 15.9208 25.4717C15.5852 25.7944 15.13 25.9757 14.6554 25.9757C14.1807 25.9757 13.7255 25.7944 13.3899 25.4717C13.0542 25.1489 12.8657 24.7112 12.8657 24.2548C12.8703 23.9028 12.7377 23.5619 12.4939 23.2993C12.2501 23.0367 11.9128 22.8714 11.5485 22.8361C11.1843 22.8007 10.8195 22.8979 10.526 23.1084C10.2326 23.3189 10.0318 23.6274 9.96318 23.9732C9.91618 24.1947 9.82427 24.4051 9.6927 24.5924C9.56114 24.7797 9.39249 24.9403 9.19639 25.0649C9.00029 25.1896 8.78058 25.2758 8.54981 25.3188C8.31903 25.3618 8.08171 25.3607 7.85139 25.3155C7.38623 25.2242 6.97783 24.959 6.71604 24.5782C6.58642 24.3896 6.49669 24.1784 6.45198 23.9565C6.40727 23.7346 6.40844 23.5064 6.45545 23.2849Z" fill="#E5EEFF"/>
<path d="M37.7391 2.04001C30.5044 -0.680003 22.4696 -0.680003 15.2349 2.04001C13.1322 2.83068 10.8391 3.03034 8.62291 2.61571L0 0.982466C0.409995 1.82099 0.761419 2.57191 1.06729 3.24148C2.21918 5.74454 2.68775 6.63938 3.99583 7.25889H4.02837C4.07635 7.28443 4.12206 7.31373 4.16503 7.3465L4.3017 7.43411L4.45137 7.57177L4.549 7.66564L4.67264 7.8346C4.69877 7.8686 4.72268 7.90412 4.74423 7.94098C4.77849 8.00388 4.80891 8.06865 4.83534 8.13496C4.83534 8.17251 4.83534 8.2038 4.88089 8.24134C4.90439 8.31074 4.92181 8.38191 4.93296 8.4541C4.9361 8.4895 4.9361 8.52509 4.93296 8.56048C4.93943 8.63754 4.93943 8.71496 4.93296 8.79202V8.89214C4.92631 8.97225 4.91326 9.05175 4.89391 9.12993V9.22379C4.87037 9.3033 4.83989 9.38075 4.8028 9.45533C4.8028 9.45533 4.8028 9.50539 4.77026 9.53668V9.57422C3.93375 11.0604 3.34313 12.6628 3.01965 14.3238C4.29678 13.1148 5.83717 12.1936 7.52959 11.6267C10.6796 10.5603 14.1383 10.7197 17.1677 12.071C19.6407 13.1098 22.374 15.932 24.9772 18.6666C25.4978 19.2173 26.0054 19.7429 26.4935 20.2435C26.9881 19.7429 27.4892 19.2173 28.0163 18.6666C30.6195 15.932 33.3268 13.1098 35.8258 12.071C38.8537 10.7227 42.3092 10.5633 45.4574 11.6267C47.1525 12.192 48.6954 13.1134 49.9739 14.3238C49.6454 12.6632 49.0527 11.0612 48.2167 9.57422C48.2182 9.55966 48.2182 9.54499 48.2167 9.53042C48.2167 9.49913 48.2167 9.4741 48.1842 9.44907C48.1492 9.37433 48.1209 9.29687 48.0996 9.21754C48.0965 9.18632 48.0965 9.15489 48.0996 9.12367C48.0802 9.04549 48.0672 8.96599 48.0605 8.88588C48.0573 8.85258 48.0573 8.81906 48.0605 8.78576C48.0605 8.71067 48.0605 8.62932 48.0605 8.55423V8.44785C48.0605 8.37901 48.0931 8.30392 48.1191 8.23509L48.1582 8.12871C48.1868 8.0623 48.2194 7.99753 48.2558 7.93472L48.3209 7.82834C48.36 7.76909 48.4035 7.71263 48.451 7.65938C48.451 7.62809 48.5161 7.59681 48.5486 7.56552C48.5953 7.51648 48.6453 7.47049 48.6983 7.42785L48.8285 7.34024L48.9651 7.25263H48.9977C50.2992 6.62687 50.7743 5.73828 51.9262 3.24148C52.2386 2.56565 52.577 1.81473 53 0.976209L44.3446 2.61571C42.1304 3.02774 39.8401 2.82813 37.7391 2.04001Z" fill="#E5EEFF"/>
</svg>
