<svg width="262" height="77" viewBox="0 0 262 77" fill="none" xmlns="http://www.w3.org/2000/svg">
<path d="M22.9634 37.2312C22.9634 36.3992 22.9815 35.7838 23.0179 35.3859C23.0906 34.9518 23.2541 34.4633 23.5085 33.9206C24.0173 32.9798 25.4346 32.5095 27.7605 32.5095C29.5049 32.5095 30.7405 32.817 31.4673 33.4321C32.0851 33.9385 32.4122 34.7167 32.4485 35.7659C32.4849 36.1278 32.503 36.6522 32.503 37.3398V56.3354C32.503 57.1674 32.4667 57.8007 32.394 58.2349C32.3577 58.6328 32.1941 59.1033 31.9034 59.646C31.431 60.5866 30.0318 61.0571 27.706 61.0571C25.4164 61.0571 24.0173 60.5687 23.5085 59.5918C23.2541 59.049 23.0906 58.5785 23.0179 58.1807C22.9815 57.7828 22.9634 57.1495 22.9634 56.2811V37.2312ZM31.9034 27.1907C31.649 27.6972 31.1766 28.0591 30.4861 28.2762C29.7956 28.4933 28.8689 28.6018 27.706 28.6018C26.5794 28.6018 25.6708 28.4933 24.9803 28.2762C24.2898 28.0591 23.7992 27.6792 23.5085 27.1364C23.2541 26.5937 23.0906 26.1233 23.0179 25.7253C22.9815 25.2911 22.9634 24.6579 22.9634 23.8258C22.9634 22.9936 22.9815 22.3785 23.0179 21.9805C23.0906 21.5463 23.2541 21.0759 23.5085 20.5694C24.0173 19.5925 25.4346 19.104 27.7605 19.104C30.05 19.104 31.431 19.5925 31.9034 20.5694C32.1941 21.1121 32.3577 21.6006 32.394 22.0348C32.4667 22.4327 32.503 23.0479 32.503 23.88C32.503 24.7122 32.4667 25.3454 32.394 25.7796C32.3577 26.1776 32.1941 26.648 31.9034 27.1907ZM57.1907 20.5694C57.4816 20.0266 57.9722 19.6467 58.6625 19.4296C59.3531 19.2125 60.2618 19.104 61.3881 19.104C62.5513 19.104 63.478 19.2125 64.1682 19.4296C64.8588 19.6467 65.3314 20.0266 65.5856 20.5694C65.8765 21.1121 66.0401 21.6006 66.0762 22.0348C66.1491 22.4327 66.1852 23.0479 66.1852 23.88V56.2811C66.1852 57.1132 66.1491 57.7465 66.0762 58.1807C66.0401 58.5785 65.8765 59.031 65.5856 59.5375C65.0404 60.5144 63.496 61.0029 60.952 61.0029C58.4444 61.0029 57.0455 60.1165 56.7546 58.3435C55.2282 60.0802 53.1022 60.9486 50.3766 60.9486C47.1059 60.9486 44.1261 59.5375 41.4366 56.7153C38.7474 53.8568 37.4027 50.5461 37.4027 46.7833C37.4027 42.9842 38.7474 39.6555 41.4366 36.797C44.1622 33.9385 47.1423 32.5095 50.3766 32.5095C53.0661 32.5095 55.1556 33.414 56.6455 35.2231V23.8258C56.6455 22.9936 56.6639 22.3785 56.7001 21.9805C56.773 21.5463 56.9365 21.0759 57.1907 20.5694ZM48.3597 50.0397C49.3048 51.0166 50.4495 51.5051 51.7939 51.5051C53.1387 51.5051 54.247 51.0166 55.1192 50.0397C56.0278 49.0628 56.482 47.9953 56.482 46.8376C56.482 45.6436 56.0459 44.5401 55.1737 43.5269C54.338 42.5137 53.1932 42.0073 51.7394 42.0073C50.286 42.0073 49.1228 42.5137 48.2506 43.5269C47.3784 44.5038 46.9423 45.5893 46.9423 46.7833C46.9423 47.9773 47.4149 49.0628 48.3597 50.0397ZM99.31 43.3641C99.31 45.5713 98.7468 47.2175 97.6201 48.3029C96.5298 49.3521 95.3125 49.8769 93.9678 49.8769H81.0483C81.0483 50.8901 81.648 51.7401 82.8472 52.4277C84.0465 53.1153 85.2458 53.4589 86.4451 53.4589C88.553 53.4589 90.2064 53.2418 91.4057 52.8076L92.0053 52.5905C92.8775 52.1926 93.6046 51.9935 94.1858 51.9935C95.349 51.9935 96.3483 52.8076 97.184 54.4358C97.6565 55.4127 97.8926 56.2448 97.8926 56.9324C97.8926 60.1525 94.0223 61.7627 86.2815 61.7627C83.5924 61.7627 81.1938 61.3105 79.0859 60.4059C77.0144 59.4652 75.3974 58.2349 74.2343 56.7153C71.9448 53.7845 70.8 50.5102 70.8 46.8918C70.8 42.3329 72.2718 38.6966 75.2155 35.9829C78.1956 33.2331 81.9025 31.8582 86.336 31.8582C91.3876 31.8582 95.0945 33.6311 97.4566 37.177C98.6923 39.0585 99.31 41.1209 99.31 43.3641ZM87.8079 44.938C89.1891 44.938 89.8793 44.359 89.8793 43.2013C89.8793 42.3692 89.5523 41.6996 88.8981 41.1932C88.2804 40.6867 87.3718 40.4333 86.1725 40.4333C85.0097 40.4333 83.8469 40.9218 82.6837 41.8987C81.5209 42.8393 80.9393 43.8525 80.9393 44.938H87.8079ZM122.6 35.4945C122.818 33.4683 124.253 32.4552 126.907 32.4552C128.324 32.4552 129.378 32.5637 130.068 32.7808C130.759 32.9979 131.231 33.3778 131.486 33.9206C131.776 34.4633 131.94 34.9518 131.976 35.3859C132.049 35.7838 132.085 36.3992 132.085 37.2312V56.2268C132.085 57.0589 132.049 57.6922 131.976 58.1264C131.94 58.5243 131.795 58.9948 131.54 59.5375C131.031 60.4781 129.778 60.9486 127.779 60.9486C125.816 60.9486 124.49 60.7135 123.799 60.243C123.145 59.7366 122.764 59.0127 122.655 58.0721C121.31 59.9896 119.057 60.9486 115.895 60.9486C112.77 60.9486 109.862 59.5195 107.173 56.661C104.484 53.8025 103.139 50.4918 103.139 46.729C103.139 42.9299 104.484 39.6192 107.173 36.797C109.899 33.9385 112.879 32.5095 116.113 32.5095C117.349 32.5095 118.475 32.7266 119.493 33.1607C120.511 33.5949 121.219 34.0111 121.619 34.409C122.018 34.771 122.346 35.1326 122.6 35.4945ZM112.679 46.7833C112.679 47.9773 113.151 49.0628 114.096 50.0397C115.041 50.9803 116.186 51.4508 117.53 51.4508C118.875 51.4508 119.983 50.9623 120.856 49.9854C121.764 49.0085 122.218 47.941 122.218 46.7833C122.218 45.5893 121.782 44.4858 120.91 43.4726C120.074 42.4594 118.93 41.953 117.476 41.953C116.059 41.953 114.896 42.4594 113.987 43.4726C113.115 44.4858 112.679 45.5893 112.679 46.7833Z" fill="#D62749"/>
<path d="M152.838 54.3273C153.747 54.3273 154.601 54.2367 155.4 54.0559C156.236 53.8751 157.072 53.6397 157.908 53.3503V60.0802C156.927 60.5144 155.8 60.8763 154.528 61.1657C153.256 61.455 151.748 61.5999 150.003 61.5999C148.15 61.5999 146.497 61.3105 145.043 60.7315C143.626 60.1165 142.499 59.0853 141.663 57.6379C140.864 56.1905 140.464 54.1465 140.464 51.5051V38.0996H136.648V34.3005L141.227 31.3697L143.735 25.074H149.622V31.2612H157.581V38.0996H149.622V51.1794C149.622 52.2286 149.913 53.0247 150.494 53.5674C151.076 54.0739 151.857 54.3273 152.838 54.3273ZM178.857 32.5637C182.49 32.5637 185.507 33.9385 187.906 36.6885C190.34 39.4384 191.558 42.8034 191.558 46.7833V56.3354C191.558 57.1674 191.521 57.8007 191.449 58.2349C191.412 58.6328 191.249 59.1033 190.958 59.646C190.486 60.5867 189.086 61.0571 186.761 61.0571C184.544 61.0571 183.163 60.5867 182.618 59.646C182.327 59.1033 182.145 58.6148 182.073 58.1807C182.036 57.7465 182.018 57.0952 182.018 56.2268V46.729C182.018 45.2457 181.6 44.0876 180.764 43.2555C179.928 42.4235 178.857 42.0073 177.548 42.0073C176.276 42.0073 175.15 42.4052 174.168 43.2013C173.187 43.9611 172.624 44.8295 172.479 45.8064V56.3354C172.479 57.1674 172.442 57.8007 172.37 58.2349C172.333 58.6328 172.17 59.1033 171.879 59.646C171.406 60.5867 170.007 61.0571 167.681 61.0571C165.392 61.0571 163.993 60.5687 163.484 59.5918C163.23 59.049 163.066 58.5785 162.993 58.1807C162.957 57.7828 162.939 57.1495 162.939 56.2811V23.8258C162.939 22.9936 162.957 22.3785 162.993 21.9805C163.066 21.5463 163.23 21.0759 163.484 20.5694C163.993 19.5925 165.41 19.104 167.736 19.104C170.026 19.104 171.406 19.5925 171.879 20.5694C172.17 21.1121 172.333 21.6006 172.37 22.0348C172.442 22.4327 172.479 23.0479 172.479 23.88V35.8744C174.296 33.6673 176.422 32.5637 178.857 32.5637ZM196.217 46.7833C196.217 42.4414 197.743 38.8594 200.796 36.0372C203.849 33.215 207.338 31.8039 211.262 31.8039C215.187 31.8039 218.658 33.215 221.674 36.0372C224.691 38.8231 226.199 42.3872 226.199 46.729C226.199 49.732 225.417 52.4097 223.855 54.7615C222.292 57.0772 220.384 58.7956 218.131 59.9174C215.914 61.0029 213.606 61.5456 211.208 61.5456C208.809 61.5456 206.483 60.9666 204.23 59.8089C201.977 58.6148 200.069 56.8781 198.507 54.5986C196.98 52.2829 196.217 49.6778 196.217 46.7833ZM207.61 50.691C208.773 51.5593 209.954 51.9935 211.153 51.9935C212.353 51.9935 213.552 51.5414 214.751 50.6367C215.95 49.732 216.55 48.3935 216.55 46.6205C216.55 44.8474 215.987 43.5269 214.86 42.6585C213.734 41.7902 212.516 41.356 211.208 41.356C209.9 41.356 208.682 41.8081 207.556 42.7128C206.429 43.6175 205.866 44.956 205.866 46.729C205.866 48.4658 206.447 49.7863 207.61 50.691ZM246.783 32.4552C250.417 32.4552 253.434 33.8482 255.832 36.6342C258.267 39.3842 259.484 42.7491 259.484 46.729V56.2811C259.484 57.1132 259.448 57.7465 259.375 58.1807C259.339 58.5785 259.194 59.0311 258.939 59.5375C258.431 60.5144 257.013 61.0029 254.687 61.0029C252.107 61.0029 250.617 60.3336 250.217 58.9948C249.999 58.3798 249.89 57.4571 249.89 56.2268V46.6748C249.89 45.1914 249.454 44.0333 248.582 43.2013C247.746 42.3692 246.601 41.953 245.148 41.953C243.73 41.953 242.568 42.3872 241.659 43.2555C240.787 44.1239 240.351 45.2637 240.351 46.6748V56.2811C240.351 57.1132 240.314 57.7465 240.242 58.1807C240.205 58.5785 240.042 59.0311 239.751 59.5375C239.279 60.5144 237.879 61.0029 235.553 61.0029C233.264 61.0029 231.865 60.5144 231.356 59.5375C231.102 58.9948 230.938 58.5243 230.865 58.1264C230.829 57.6922 230.811 57.0589 230.811 56.2268V37.0141C230.811 36.218 230.829 35.621 230.865 35.2231C230.938 34.7889 231.12 34.3185 231.411 33.812C231.92 32.9075 233.318 32.4552 235.608 32.4552C237.825 32.4552 239.188 32.8713 239.696 33.7035C240.06 34.3185 240.242 35.0603 240.242 35.9287C240.387 35.6753 240.714 35.3137 241.223 34.8432C241.732 34.3727 242.222 33.9928 242.695 33.7035C243.93 32.8713 245.293 32.4552 246.783 32.4552Z" fill="white"/>
<path d="M18.4916 58.3018C18.4916 53.7771 12.0335 44.5846 8.20641 40.203C3.42258 34.7255 1.26984 24.9618 4.85772 16.1505C8.44558 9.00629 16.5781 3.05273 26.6242 3.05273C32.3648 3.05273 42.889 5.52939 48.6299 17.3412C49.9852 20.6752 51.9786 29.0102 48.6299 36.1546C44.3244 43.5368 35.4743 55.2058 35.4743 58.3018" stroke="white" stroke-width="6"/>
<path d="M15.0259 69.5376H39.4233" stroke="white" stroke-width="6"/>
</svg>
